<svg width="24" height="25" viewBox="0 0 24 25" fill="none" xmlns="http://www.w3.org/2000/svg">
<g clip-path="url(#clip0_260_101)">
<path d="M14.1563 0.640624C14.202 0.649937 14.2477 0.65925 14.2948 0.668846C16.5627 1.14325 18.6246 2.17059 20.2969 3.78125C20.3433 3.8257 20.3433 3.8257 20.3906 3.87104C20.8353 4.29969 21.245 4.7355 21.6094 5.23437C21.6496 5.28833 21.6899 5.34229 21.7301 5.39624C22.0131 5.7802 22.2643 6.17928 22.5 6.59375C22.5171 6.62337 22.5342 6.65298 22.5518 6.68349C23.5646 8.45294 24.0224 10.4576 24.0147 12.4824C24.0146 12.5301 24.0145 12.5778 24.0144 12.627C24.0121 13.3118 24.0003 13.9836 23.8594 14.6562C23.8454 14.7248 23.8454 14.7248 23.8312 14.7947C23.606 15.8711 23.2639 16.9025 22.7813 17.8906C22.7666 17.9212 22.7519 17.9517 22.7367 17.9832C22.2211 19.0435 21.4883 19.9986 20.6719 20.8438C20.6438 20.8729 20.6158 20.902 20.5868 20.9319C20.2276 21.3023 19.8647 21.656 19.4532 21.9688C19.4278 21.9883 19.4025 22.0078 19.3764 22.0279C17.7532 23.2757 15.8548 24.0998 13.8282 24.4062C13.7756 24.4145 13.7229 24.4228 13.6687 24.4313C13.1244 24.509 12.5845 24.5187 12.0352 24.5176C11.964 24.5175 11.964 24.5175 11.8914 24.5175C11.1167 24.5156 10.3698 24.4732 9.60942 24.3125C9.56058 24.3022 9.51174 24.2919 9.46142 24.2813C7.26276 23.8017 5.27315 22.7337 3.65629 21.1719C3.61264 21.1298 3.61264 21.1298 3.5681 21.0868C3.19772 20.7275 2.84417 20.3646 2.53129 19.9531C2.51226 19.9285 2.49322 19.904 2.47361 19.8786C1.14823 18.1622 0.3229 16.1503 0.0469158 14C0.0428222 13.9687 0.038728 13.9374 0.0345104 13.9052C0.00187406 13.6373 -0.00814179 13.3729 -0.0094807 13.1031C-0.00997708 13.0366 -0.00997708 13.0366 -0.0104835 12.9687C-0.021166 11.1164 -0.021166 11.1164 0.140666 10.3438C0.149979 10.2981 0.159292 10.2524 0.168887 10.2053C0.530819 8.47505 1.20288 6.85031 2.25004 5.42187C2.27967 5.38121 2.27967 5.38121 2.30989 5.33973C2.55946 4.99954 2.82809 4.68383 3.11668 4.37653C3.21208 4.274 3.30291 4.16993 3.39262 4.0625C4.98556 2.23984 7.50689 1.07716 9.84379 0.640624C9.88153 0.633018 9.91926 0.625413 9.95814 0.617576C11.2702 0.361036 12.8479 0.366597 14.1563 0.640624Z" fill="#0152B4"/>
<path d="M0 12.5C7.92 12.5 15.84 12.5 24 12.5C24 14.4137 23.6214 16.1705 22.7812 17.8906C22.7592 17.9365 22.7592 17.9365 22.7367 17.9832C22.221 19.0435 21.4882 19.9986 20.6719 20.8438C20.6438 20.8729 20.6157 20.902 20.5868 20.9319C20.2276 21.3023 19.8647 21.656 19.4531 21.9688C19.4278 21.9883 19.4025 22.0078 19.3764 22.0279C17.7532 23.2757 15.8547 24.0998 13.8281 24.4062C13.7492 24.4187 13.7492 24.4187 13.6687 24.4313C13.1243 24.509 12.5844 24.5187 12.0352 24.5176C11.964 24.5175 11.964 24.5175 11.8914 24.5175C11.1166 24.5156 10.3697 24.4732 9.60938 24.3125C9.56054 24.3022 9.5117 24.2919 9.46138 24.2813C7.26272 23.8017 5.2731 22.7337 3.65625 21.1719C3.6126 21.1298 3.6126 21.1298 3.56806 21.0868C3.19768 20.7275 2.84413 20.3646 2.53125 19.9531C2.51222 19.9285 2.49318 19.904 2.47357 19.8786C0.81232 17.7273 0 15.2056 0 12.5Z" fill="#F0F0F0"/>
<path d="M-3.26424e-05 12.5C7.91997 12.5 15.84 12.5 24 12.5C24 13.7492 24 13.7492 23.9443 14.123C23.9372 14.1805 23.9372 14.1805 23.9299 14.2391C23.8643 14.7159 23.7372 15.1692 23.625 15.6406C15.9525 15.6561 8.27997 15.6716 0.374967 15.6875C0.100796 14.4811 0.100796 14.4811 0.0556314 14.1201C0.0499817 14.0824 0.044332 14.0446 0.0385111 14.0058C-0.0272506 13.5018 -3.26424e-05 13.0153 -3.26424e-05 12.5Z" fill="#EFEFEF"/>
<path d="M0.421875 15.6406C8.07891 15.6406 15.7359 15.6406 23.625 15.6406C23.2969 16.7342 23.2969 16.7342 23.1211 17.1436C23.1015 17.19 23.0818 17.2365 23.0616 17.2843C22.8691 17.7313 22.6585 18.1769 22.4062 18.5938C22.3803 18.642 22.3803 18.642 22.3538 18.6913C22.247 18.8003 22.1764 18.8041 22.0271 18.807C21.9946 18.8067 21.9622 18.8064 21.9287 18.806C21.894 18.8064 21.8593 18.8068 21.8235 18.8072C21.7063 18.8083 21.5891 18.8081 21.4718 18.8079C21.3873 18.8084 21.3027 18.809 21.2182 18.8097C20.9851 18.8113 20.7521 18.8117 20.519 18.8119C20.268 18.8124 20.0169 18.8139 19.7658 18.8153C19.1592 18.8183 18.5525 18.8195 17.9459 18.8206C17.6603 18.8212 17.3748 18.822 17.0893 18.8228C16.1404 18.8253 15.1915 18.8274 14.2427 18.8282C14.1819 18.8283 14.1212 18.8283 14.0586 18.8284C13.9977 18.8284 13.9367 18.8285 13.874 18.8285C13.7506 18.8287 13.6271 18.8288 13.5037 18.8289C13.4425 18.8289 13.3813 18.829 13.3182 18.829C12.326 18.83 11.3339 18.8336 10.3418 18.8384C9.32368 18.8433 8.30561 18.8459 7.28752 18.8462C6.71567 18.8464 6.14387 18.8477 5.57203 18.8514C5.0851 18.8546 4.59821 18.8557 4.11127 18.8541C3.86274 18.8533 3.61432 18.8535 3.3658 18.8564C3.13827 18.859 2.91092 18.8588 2.68338 18.8564C2.60108 18.856 2.51876 18.8566 2.43648 18.8584C2.18924 18.8634 1.97044 18.8598 1.73438 18.7812C1.55347 18.5963 1.46078 18.4105 1.35938 18.1719C1.31849 18.0937 1.27717 18.0157 1.23505 17.9382C1.19881 17.864 1.16312 17.7896 1.12793 17.7148C1.10866 17.6741 1.08939 17.6334 1.06953 17.5914C0.914232 17.2548 0.780137 16.9117 0.65332 16.5635C0.626452 16.4901 0.626452 16.4901 0.599041 16.4153C0.582571 16.3687 0.566102 16.322 0.549133 16.274C0.534688 16.2331 0.520243 16.1923 0.50536 16.1502C0.460166 15.9841 0.443222 15.8114 0.421875 15.6406Z" fill="#D80128"/>
<path d="M12 9.35938C15.8362 9.35938 19.6725 9.35938 23.625 9.35938C23.8988 10.5095 23.8988 10.5095 23.9443 10.877C23.95 10.9149 23.9556 10.9528 23.9615 10.9919C24.027 11.4967 24 11.984 24 12.5C20.04 12.5 16.08 12.5 12 12.5C12 11.4636 12 10.4272 12 9.35938Z" fill="#D80127"/>
<path d="M22.1719 6.125C22.9534 6.85772 23.3295 8.32898 23.625 9.3125C23.625 9.32797 23.625 9.34344 23.625 9.35938C19.7888 9.35938 15.9525 9.35938 12 9.35938C12 8.32297 12 7.28656 12 6.21875C15.3567 6.21875 18.7134 6.21875 22.1719 6.21875C22.1719 6.18781 22.1719 6.15687 22.1719 6.125Z" fill="#EFEEEF"/>
<path d="M12 3.07811C12.9674 3.06645 13.9347 3.05696 14.9021 3.0514C15.3513 3.04875 15.8005 3.04513 16.2497 3.03922C16.6414 3.03406 17.0331 3.03075 17.4249 3.0296C17.6322 3.02893 17.8394 3.02737 18.0466 3.0236C18.2421 3.02007 18.4375 3.01902 18.6331 3.01979C18.7044 3.01965 18.7757 3.01864 18.847 3.01665C19.2972 3.00469 19.5795 3.08625 19.9088 3.39197C19.9542 3.43643 19.9992 3.48136 20.0437 3.52679C20.1101 3.59444 20.1782 3.6596 20.2473 3.72442C20.3697 3.83978 20.4889 3.9578 20.6074 4.07714C20.6712 4.14118 20.6712 4.14118 20.7362 4.20651C21.0554 4.53108 21.3447 4.86449 21.6094 5.23436C21.6532 5.29467 21.697 5.35497 21.7408 5.41527C22.1719 6.01178 22.1719 6.01178 22.1719 6.21874C18.8152 6.21874 15.4584 6.21874 12 6.21874C12 5.18233 12 4.14593 12 3.07811Z" fill="#D80228"/>
<path d="M4.54688 21.875C9.46594 21.875 14.385 21.875 19.4531 21.875C19.4018 22.029 19.379 22.0484 19.2521 22.1376C19.2199 22.1603 19.1877 22.1831 19.1546 22.2065C19.1197 22.2305 19.0848 22.2546 19.0488 22.2793C19.0128 22.3043 18.9767 22.3294 18.9396 22.3552C18.6039 22.586 18.2612 22.8002 17.9062 23C17.8733 23.0187 17.8404 23.0374 17.8064 23.0567C16.5779 23.7484 15.2213 24.1956 13.8281 24.4062C13.7755 24.4145 13.7229 24.4228 13.6687 24.4313C13.1243 24.509 12.5844 24.5187 12.0352 24.5176C11.964 24.5175 11.964 24.5175 11.8914 24.5175C11.1166 24.5156 10.3697 24.4732 9.60938 24.3125C9.56054 24.3022 9.5117 24.2919 9.46138 24.2813C7.8172 23.9227 6.28462 23.2365 4.92188 22.25C4.87909 22.2198 4.83631 22.1896 4.79224 22.1584C4.70835 22.098 4.62711 22.0339 4.54688 21.9688C4.54688 21.9378 4.54688 21.9069 4.54688 21.875Z" fill="#D8042A"/>
<path d="M12 0.5C14.5724 0.5 16.9899 1.2327 19.0781 2.75C19.1209 2.78076 19.1637 2.81151 19.2078 2.8432C19.2909 2.90409 19.3723 2.96729 19.4531 3.03125C19.4531 3.04672 19.4531 3.06219 19.4531 3.07812C16.9936 3.07812 14.5341 3.07812 12 3.07812C12 2.22734 12 1.37656 12 0.5Z" fill="#F0F0F0"/>
<path d="M9.28125 8.1875C9.375 8.23438 9.375 8.23438 9.42023 8.35413C9.43527 8.40549 9.45032 8.45685 9.46582 8.50977C9.48075 8.55992 9.49567 8.61007 9.51105 8.66174C9.57666 8.89384 9.63966 9.12668 9.70312 9.35938C10.1053 9.35938 10.5075 9.35938 10.9219 9.35938C10.6582 9.62305 10.6582 9.62305 10.5211 9.71918C10.4922 9.73957 10.4634 9.75996 10.4336 9.78098C10.3896 9.81157 10.3896 9.81157 10.3447 9.84277C10.3145 9.86407 10.2842 9.88537 10.2531 9.90732C10.1793 9.95925 10.1053 10.0109 10.0312 10.0625C10.0636 10.3495 10.1421 10.6053 10.2356 10.8777C10.3174 11.1259 10.3174 11.1259 10.2656 11.2812C10.2408 11.263 10.216 11.2448 10.1904 11.2261C10.0779 11.1437 9.96523 11.0616 9.85254 10.9795C9.81347 10.9508 9.77441 10.9221 9.73416 10.8926C9.69655 10.8653 9.65893 10.8379 9.62018 10.8098C9.58557 10.7845 9.55095 10.7592 9.51529 10.7331C9.41888 10.6642 9.41888 10.6642 9.28125 10.625C9.16787 10.6945 9.06476 10.765 8.95898 10.8447C8.93028 10.8657 8.90158 10.8867 8.87201 10.9084C8.74259 11.0035 8.61666 11.1006 8.4928 11.2031C8.39062 11.2812 8.39062 11.2812 8.29688 11.2812C8.40253 10.8681 8.53418 10.4658 8.67188 10.0625C8.64491 10.0497 8.61795 10.0369 8.59016 10.0238C8.4067 9.92834 8.24267 9.804 8.07422 9.68457C8.03706 9.65856 7.9999 9.63254 7.96161 9.60574C7.90895 9.56854 7.90895 9.56854 7.85522 9.53058C7.82303 9.50786 7.79084 9.48513 7.75768 9.46172C7.73452 9.44341 7.71136 9.42511 7.6875 9.40625C7.6875 9.39078 7.6875 9.37531 7.6875 9.35938C8.10516 9.35938 8.52281 9.35938 8.95312 9.35938C8.98406 9.20469 9.015 9.05 9.04688 8.89062C9.08579 8.76209 9.12553 8.63622 9.16992 8.50977C9.18068 8.47834 9.19143 8.44692 9.20251 8.41455C9.22849 8.33878 9.25483 8.26312 9.28125 8.1875Z" fill="#E8EBEE"/>
<path d="M4.96875 8.1875C5.07438 8.29313 5.09702 8.36186 5.14343 8.50244C5.15793 8.54613 5.17244 8.58982 5.18738 8.63483C5.20224 8.68057 5.21711 8.72631 5.23242 8.77344C5.25526 8.84205 5.25526 8.84205 5.27856 8.91205C5.39062 9.25247 5.39062 9.25247 5.39062 9.35938C5.79281 9.35938 6.195 9.35938 6.60938 9.35938C6.3457 9.62305 6.3457 9.62305 6.20856 9.71918C6.1797 9.73957 6.15085 9.75996 6.12112 9.78098C6.07712 9.81157 6.07712 9.81157 6.03223 9.84277C6.00198 9.86407 5.97174 9.88537 5.94058 9.90732C5.86678 9.95925 5.79279 10.0109 5.71875 10.0625C5.75106 10.3495 5.82965 10.6053 5.9231 10.8777C6.0049 11.1259 6.0049 11.1259 5.95312 11.2812C5.93163 11.2647 5.91014 11.2482 5.888 11.2311C5.7898 11.1557 5.69129 11.0808 5.59277 11.0059C5.55897 10.9798 5.52516 10.9538 5.49033 10.9269C5.39594 10.8554 5.30022 10.7866 5.20312 10.7188C5.16469 10.6918 5.12626 10.6649 5.08667 10.6371C4.87463 10.6154 4.72881 10.7698 4.56738 10.8945C4.49708 10.9471 4.42671 10.9996 4.35626 11.052C4.32535 11.0757 4.29444 11.0993 4.26259 11.1237C4.17304 11.1867 4.08342 11.235 3.98438 11.2812C4.09003 10.8681 4.22168 10.4658 4.35938 10.0625C4.33241 10.0497 4.30545 10.0369 4.27766 10.0238C4.0942 9.92834 3.93017 9.804 3.76172 9.68457C3.72456 9.65856 3.6874 9.63254 3.64911 9.60574C3.59645 9.56854 3.59645 9.56854 3.54272 9.53058C3.51053 9.50786 3.47834 9.48513 3.44518 9.46172C3.42202 9.44341 3.39886 9.42511 3.375 9.40625C3.375 9.39078 3.375 9.37531 3.375 9.35938C3.79266 9.35938 4.21031 9.35938 4.64062 9.35938C4.65609 9.25109 4.67156 9.14281 4.6875 9.03125C4.70728 8.9584 4.7291 8.88604 4.7536 8.81464C4.76614 8.77763 4.77868 8.74062 4.7916 8.70248C4.80462 8.66499 4.81764 8.6275 4.83105 8.58887C4.84426 8.5501 4.85746 8.51134 4.87106 8.47141C4.90337 8.37668 4.93602 8.28208 4.96875 8.1875Z" fill="#E9EBEE"/>
<path d="M9.28125 1.20312C9.375 1.25 9.375 1.25 9.43213 1.40546C9.45252 1.47169 9.47252 1.53804 9.49219 1.60449C9.50216 1.63691 9.51213 1.66933 9.5224 1.70273C9.59016 1.92575 9.64641 2.14814 9.70312 2.375C10.1053 2.375 10.5075 2.375 10.9219 2.375C10.6582 2.63867 10.6582 2.63867 10.5211 2.7348C10.4922 2.7552 10.4634 2.77559 10.4336 2.7966C10.3896 2.82719 10.3896 2.82719 10.3447 2.8584C10.3145 2.8797 10.2842 2.901 10.2531 2.92294C10.1793 2.97488 10.1053 3.02653 10.0312 3.07812C10.0636 3.36516 10.1421 3.62091 10.2356 3.89331C10.3174 4.14155 10.3174 4.14155 10.2656 4.29688C10.2399 4.2765 10.2141 4.25613 10.1876 4.23515C10.0707 4.1435 9.95287 4.05319 9.83496 3.96289C9.77419 3.91476 9.77419 3.91476 9.71219 3.86566C9.67276 3.83575 9.63333 3.80584 9.59271 3.77502C9.55663 3.74704 9.52054 3.71906 9.48336 3.69022C9.37547 3.62709 9.37547 3.62709 9.25504 3.67148C9.15235 3.72793 9.06023 3.78527 8.96722 3.85632C8.92141 3.89077 8.92141 3.89077 8.87466 3.9259C8.84352 3.94971 8.81237 3.97352 8.78027 3.99805C8.71774 4.04573 8.65507 4.09323 8.59222 4.1405C8.56475 4.16151 8.53728 4.18251 8.50897 4.20415C8.4375 4.25 8.4375 4.25 8.34375 4.25C8.37133 4.00526 8.42795 3.79004 8.51074 3.55859C8.59678 3.32452 8.59678 3.32452 8.625 3.07812C8.5421 3.00285 8.5421 3.00285 8.43182 2.93439C8.39185 2.90777 8.35188 2.88115 8.3107 2.85373C8.26843 2.82627 8.22617 2.7988 8.18262 2.77051C8.09955 2.71594 8.0166 2.6612 7.93378 2.60626C7.89671 2.58212 7.85964 2.55798 7.82145 2.5331C7.73438 2.46875 7.73438 2.46875 7.6875 2.375C8.10516 2.375 8.52281 2.375 8.95312 2.375C8.96859 2.26672 8.98406 2.15844 9 2.04688C9.01978 1.97402 9.0416 1.90167 9.0661 1.83026C9.07864 1.79325 9.09118 1.75624 9.1041 1.71811C9.11712 1.68062 9.13014 1.64312 9.14355 1.60449C9.15676 1.56573 9.16996 1.52697 9.18356 1.48703C9.21587 1.39231 9.24852 1.2977 9.28125 1.20312Z" fill="#E9EBEE"/>
<path d="M9.28125 4.71875C9.375 4.76562 9.375 4.76562 9.41072 4.84898C9.42171 4.88456 9.4327 4.92013 9.44403 4.95679C9.45621 4.99576 9.46838 5.03474 9.48093 5.07489C9.49334 5.11592 9.50576 5.15695 9.51855 5.19922C9.53115 5.23952 9.54375 5.27983 9.55673 5.32135C9.61552 5.51163 9.66392 5.6946 9.70312 5.89062C10.1053 5.89062 10.5075 5.89062 10.9219 5.89062C10.7938 6.01873 10.6968 6.11117 10.552 6.20923C10.5188 6.23189 10.4855 6.25455 10.4513 6.27789C10.4171 6.30091 10.3829 6.32394 10.3477 6.34766C10.3127 6.3714 10.2778 6.39515 10.2418 6.41962C10.1561 6.47784 10.0703 6.53588 9.98438 6.59375C9.99456 6.62425 10.0047 6.65476 10.0152 6.68618C10.061 6.82418 10.1062 6.96238 10.1514 7.10059C10.1674 7.14859 10.1835 7.1966 10.2 7.24606C10.2149 7.29214 10.2299 7.33821 10.2453 7.38568C10.2663 7.44938 10.2663 7.44938 10.2877 7.51437C10.3125 7.625 10.3125 7.625 10.2656 7.76562C10.2396 7.74692 10.2136 7.72821 10.1868 7.70894C10.069 7.62468 9.95053 7.54134 9.83203 7.45801C9.77067 7.41382 9.77067 7.41382 9.70807 7.36874C9.6487 7.32728 9.6487 7.32728 9.58813 7.28497C9.5518 7.2592 9.51547 7.23342 9.47804 7.20687C9.37978 7.14772 9.37978 7.14772 9.27976 7.16377C9.1749 7.2085 9.09056 7.26222 8.99817 7.3291C8.96324 7.35412 8.92832 7.37913 8.89233 7.40491C8.85632 7.43113 8.82031 7.45736 8.7832 7.48438C8.71134 7.53618 8.63944 7.58794 8.5675 7.63965C8.5358 7.66267 8.5041 7.68569 8.47144 7.70941C8.39062 7.76562 8.39062 7.76562 8.29688 7.8125C8.37738 7.46853 8.47188 7.13634 8.59351 6.8045C8.63781 6.6828 8.63781 6.6828 8.57812 6.54688C8.49922 6.47732 8.49922 6.47732 8.40088 6.41339C8.36529 6.38889 8.3297 6.36439 8.29303 6.33914C8.25563 6.31391 8.21822 6.28869 8.17969 6.2627C8.10583 6.21252 8.0321 6.16218 7.9585 6.11163C7.92566 6.08945 7.89281 6.06727 7.85898 6.04442C7.78125 5.98438 7.78125 5.98438 7.73438 5.89062C8.13656 5.89062 8.53875 5.89062 8.95312 5.89062C8.96859 5.78234 8.98406 5.67406 9 5.5625C9.01978 5.48965 9.0416 5.41729 9.0661 5.34589C9.07864 5.30888 9.09118 5.27187 9.1041 5.23373C9.11712 5.19624 9.13014 5.15875 9.14355 5.12012C9.15676 5.08135 9.16996 5.04259 9.18356 5.00266C9.21587 4.90793 9.24852 4.81333 9.28125 4.71875Z" fill="#EAECEE"/>
<path d="M4.96875 4.71875C5.0625 4.76562 5.0625 4.76562 5.10326 4.85908C5.11652 4.89918 5.12978 4.93928 5.14343 4.98059C5.15793 5.02422 5.17244 5.06784 5.18738 5.11279C5.20967 5.18168 5.20967 5.18168 5.23242 5.25195C5.25526 5.32029 5.25526 5.32029 5.27856 5.39001C5.39062 5.7309 5.39062 5.7309 5.39062 5.89062C5.79281 5.89062 6.195 5.89062 6.60938 5.89062C6.39934 6.10066 6.39934 6.10066 6.26166 6.19238C6.23287 6.21208 6.20407 6.23178 6.17441 6.25208C6.1144 6.29261 6.05421 6.33289 5.99387 6.37292C5.83043 6.47864 5.83043 6.47864 5.73127 6.63922C5.7125 6.78188 5.75793 6.88902 5.80371 7.02441C5.88396 7.27043 5.94845 7.51217 6 7.76562C5.72174 7.62017 5.48614 7.43535 5.24377 7.23737C5.11917 7.14403 5.11917 7.14403 4.99591 7.16674C4.8692 7.20487 4.7876 7.25141 4.68109 7.3291C4.64632 7.35412 4.61154 7.37913 4.57571 7.40491C4.54009 7.43113 4.50447 7.45736 4.46777 7.48438C4.39633 7.53618 4.32486 7.58794 4.25336 7.63965C4.20625 7.67418 4.20625 7.67418 4.1582 7.70941C4.07812 7.76562 4.07812 7.76562 3.98438 7.8125C4.07319 7.47677 4.17165 7.14606 4.28101 6.81641C4.32536 6.68448 4.32536 6.68448 4.26562 6.54688C4.16059 6.46548 4.05613 6.38972 3.94629 6.31543C3.88727 6.27514 3.82837 6.23467 3.76959 6.19403C3.74338 6.17627 3.71717 6.15851 3.69016 6.14021C3.59331 6.06578 3.50824 5.97699 3.42188 5.89062C3.82406 5.89062 4.22625 5.89062 4.64062 5.89062C4.65609 5.78234 4.67156 5.67406 4.6875 5.5625C4.70728 5.48965 4.7291 5.41729 4.7536 5.34589C4.76614 5.30888 4.77868 5.27187 4.7916 5.23373C4.80462 5.19624 4.81764 5.15875 4.83105 5.12012C4.84426 5.08135 4.85746 5.04259 4.87106 5.00266C4.90337 4.90793 4.93602 4.81333 4.96875 4.71875Z" fill="#EAECEE"/>
<path d="M0.703177 8.32812C0.796927 8.375 0.796927 8.375 0.843802 8.49969C0.859271 8.55232 0.87474 8.60495 0.890677 8.65918C0.906146 8.71096 0.921615 8.76275 0.937552 8.8161C0.987749 8.9963 1.03281 9.1779 1.07818 9.35938C1.48036 9.35938 1.88255 9.35938 2.29693 9.35938C2.03326 9.62305 2.03326 9.62305 1.89611 9.71918C1.86726 9.73957 1.8384 9.75996 1.80868 9.78098C1.76467 9.81157 1.76467 9.81157 1.71978 9.84277C1.68954 9.86407 1.65929 9.88537 1.62813 9.90732C1.55433 9.95925 1.48034 10.0109 1.4063 10.0625C1.43388 10.3072 1.4905 10.5225 1.57329 10.7539C1.68755 11.0756 1.68755 11.0756 1.68755 11.2344C1.42064 11.1502 1.22254 10.97 1.00915 10.7955C0.924618 10.7301 0.845964 10.6722 0.750052 10.625C0.621294 10.6396 0.621294 10.6396 0.515677 10.7188C0.47767 10.7421 0.439663 10.7654 0.400504 10.7894C0.364068 10.8144 0.327632 10.8395 0.290091 10.8652C0.253051 10.8905 0.216011 10.9157 0.177848 10.9418C0.150113 10.961 0.122378 10.9802 0.0938023 11C0.0817062 10.6895 0.125632 10.4097 0.190482 10.1064C0.205777 10.0338 0.205777 10.0338 0.221381 9.95966C0.480369 8.77374 0.480369 8.77374 0.703177 8.32812Z" fill="#ECEDEF"/>
<path d="M6.07031 2.36034C6.12228 2.3614 6.17424 2.36246 6.22778 2.36355C6.35505 2.36629 6.48218 2.37013 6.60938 2.37499C6.43342 2.561 6.24707 2.71099 6.03809 2.85839C6.00863 2.87969 5.97917 2.90099 5.94882 2.92293C5.73063 3.07812 5.73063 3.07812 5.625 3.07812C5.64422 3.12736 5.66343 3.17661 5.68323 3.22735C5.81352 3.56535 5.93608 3.89201 6 4.24999C5.75499 4.17 5.57716 4.01507 5.38202 3.85366C5.17514 3.68057 5.17514 3.68057 4.92188 3.64062C4.78402 3.719 4.66378 3.81605 4.54102 3.91601C4.47461 3.96877 4.40809 4.02139 4.34143 4.07384C4.31224 4.09746 4.28305 4.12108 4.25297 4.14541C4.17188 4.20312 4.17188 4.20312 4.03125 4.24999C4.10232 3.71563 4.16155 3.30911 4.59558 2.96351C4.73131 2.86321 4.86787 2.76582 5.00979 2.67445C5.10933 2.61132 5.10933 2.61132 5.19779 2.54071C5.47562 2.33583 5.73447 2.34729 6.07031 2.36034Z" fill="#EBECEE"/>
<path d="M1.45312 6.6875C1.5 6.78125 1.5 6.78125 1.51758 6.94531C1.53973 7.14731 1.59733 7.33013 1.66296 7.52191C1.6875 7.625 1.6875 7.625 1.64062 7.76562C1.47047 7.64187 1.30031 7.51812 1.125 7.39062C1.19022 7.19495 1.2424 7.0535 1.3418 6.88086C1.3627 6.84424 1.38361 6.80762 1.40515 6.7699C1.42098 6.74271 1.43681 6.71552 1.45312 6.6875Z" fill="#DDE3EB"/>
<path d="M4.26562 3.26562C4.28109 3.29656 4.29656 3.3275 4.3125 3.35938C4.29005 3.37847 4.2676 3.39757 4.24448 3.41725C3.99851 3.62913 3.76718 3.85215 3.53906 4.08301C3.50498 4.1173 3.4709 4.15159 3.43579 4.18692C3.35292 4.27034 3.27016 4.35387 3.1875 4.4375C3.15656 4.42203 3.12562 4.40656 3.09375 4.39062C3.86619 3.53191 3.86619 3.53191 4.26562 3.26562Z" fill="#1760BB"/>
<path d="M2.0625 5.70312C2.07797 5.73406 2.09344 5.765 2.10938 5.79688C2.22784 5.8276 2.22784 5.8276 2.34375 5.84375C2.17027 6.02774 1.98986 6.16933 1.78125 6.3125C1.75031 6.29703 1.71937 6.28156 1.6875 6.26562C1.81125 6.08 1.935 5.89437 2.0625 5.70312Z" fill="#CBD8E6"/>
<path d="M5.90625 2.09375C5.93719 2.10922 5.96812 2.12469 6 2.14062C5.93039 2.21023 5.93039 2.21023 5.85938 2.28125C6.12234 2.29672 6.38531 2.31219 6.65625 2.32812C6.64078 2.35906 6.62531 2.39 6.60938 2.42188C6.0757 2.39867 6.0757 2.39867 5.53125 2.375C5.65326 2.27739 5.77624 2.18042 5.90625 2.09375Z" fill="#2067BC"/>
<path d="M5.90625 2.09375C5.93719 2.10922 5.96812 2.12469 6 2.14062C5.79858 2.32831 5.79858 2.32831 5.71875 2.375C5.61548 2.3587 5.61548 2.3587 5.53125 2.32812C5.5915 2.28763 5.65211 2.2477 5.71289 2.20801C5.76347 2.17456 5.76347 2.17456 5.81506 2.14044C5.84516 2.12503 5.87525 2.10963 5.90625 2.09375Z" fill="#4B83C6"/>
</g>
<defs>
<clipPath id="clip0_260_101">
<rect width="24" height="24" fill="white" transform="translate(0 0.5)"/>
</clipPath>
</defs>
</svg>
