<svg width="46" height="37" viewBox="0 0 46 37" fill="none" xmlns="http://www.w3.org/2000/svg">
<path d="M16.8022 9.37154C16.9599 9.39337 17.136 9.39718 17.3154 9.37383C16.9138 9.42784 16.5605 9.34771 16.2534 9.26228C15.9428 9.17386 15.659 9.06474 15.3881 8.96231C15.1184 8.86011 14.853 8.75955 14.6292 8.70667C14.5998 8.69821 14.5773 8.69657 14.5509 8.69081C14.5293 8.68618 14.5199 8.68461 14.5079 8.68356C14.4844 8.68029 14.4602 8.6796 14.4369 8.68245C14.3896 8.68691 14.3496 8.71204 14.3272 8.74658C14.308 8.77459 14.298 8.80167 14.2953 8.84058C14.3025 8.8024 14.3172 8.77806 14.3394 8.75404C14.3691 8.7191 14.4204 8.70282 14.4706 8.70996C14.4995 8.71339 14.5089 8.71627 14.5502 8.72787C14.605 8.73935 14.6719 8.7599 14.7397 8.78188C15.018 8.8732 15.3366 9.01618 15.6785 9.15C16.0229 9.28229 16.3923 9.42611 16.8661 9.483C17.1022 9.50757 17.3824 9.50092 17.6462 9.4059C17.9114 9.31293 18.114 9.13608 18.2381 8.9586C18.4696 8.59575 18.503 8.26606 18.523 7.9453C18.5294 7.62676 18.4957 7.3608 18.4863 7.12259C18.4817 7.00669 18.4801 6.89711 18.4897 6.81389L18.4952 6.7535L18.4954 6.72995C18.4963 6.71394 18.4982 6.69856 18.5046 6.68341C18.5362 6.61926 18.5951 6.58346 18.7796 6.60254C18.7992 6.65151 18.9037 6.71643 19.075 6.87235C19.2464 7.02406 19.4668 7.25505 19.7371 7.50581C20.0044 7.75206 20.3429 8.02149 20.7231 8.16502C20.9061 8.23949 21.0848 8.27165 21.2077 8.29069C21.332 8.29974 21.4073 8.29937 21.4174 8.29545C21.5278 8.30009 21.6222 8.27823 21.7242 8.2671C21.8239 8.25842 21.9221 8.22643 22.0188 8.19321C22.0667 8.17653 22.1156 8.16099 22.1607 8.14132L22.2872 8.07076L22.4101 7.99698L22.5104 7.91175C22.7745 7.67952 22.9067 7.41999 23.0155 7.18345C23.1781 6.81022 23.2848 6.44632 23.4508 6.20018C23.5392 6.08232 23.5542 6.07483 23.6214 6.04598C23.6853 6.02244 23.7621 6.06002 23.8018 6.11237C23.8136 6.12653 23.821 6.13545 23.8342 6.15578L23.8593 6.19649L23.8912 6.25393C23.933 6.33309 23.9716 6.41928 24.0083 6.50862C24.0817 6.68782 24.1452 6.87996 24.2104 7.07897C24.2793 7.28058 24.3338 7.48088 24.4541 7.72796C24.5703 7.94836 24.7179 8.20504 25.031 8.42454C25.188 8.52824 25.383 8.61207 25.5666 8.64246C25.7542 8.68138 25.9174 8.67591 26.0715 8.66797C26.3692 8.64157 26.6127 8.57864 26.8454 8.52202C27.0729 8.46626 27.3008 8.41032 27.5298 8.3542C27.7619 8.29656 27.9826 8.2381 28.1787 8.20861C28.2296 8.19903 28.2721 8.19764 28.3157 8.19317C28.3598 8.18901 28.3579 8.19236 28.3808 8.19282C28.4151 8.1961 28.4492 8.20729 28.4759 8.22699C28.5028 8.2474 28.5179 8.2753 28.5279 8.30244C28.5409 8.3411 28.5554 8.40155 28.5635 8.49179C28.572 8.53623 28.5702 8.56956 28.5679 8.59916C28.5707 8.6272 28.5597 8.67188 28.555 8.71004C28.5412 8.79083 28.5177 8.88107 28.4897 8.97499C28.4345 9.16334 28.3629 9.36467 28.3042 9.58781C28.274 9.71394 28.2367 9.85339 28.2283 10.0378C28.2232 10.2168 28.2171 10.4443 28.3811 10.7252C28.4611 10.8565 28.5794 10.9955 28.7237 11.0927L28.8326 11.1697L28.9419 11.2248C29.0194 11.2592 29.084 11.2993 29.177 11.3252C29.5511 11.4412 29.844 11.4168 30.1048 11.3963C30.3665 11.3707 30.602 11.3259 30.8305 11.2883C31.0571 11.2503 31.2802 11.2162 31.4682 11.2114C31.5171 11.2084 31.5602 11.2096 31.5968 11.2138C31.6333 11.2122 31.6842 11.2253 31.6739 11.2223C31.6863 11.2257 31.7105 11.2329 31.7185 11.2476C31.7288 11.2605 31.7445 11.2723 31.7432 11.289C31.7453 11.2965 31.7428 11.304 31.7427 11.3113C31.7416 11.3157 31.7404 11.3131 31.7387 11.3174C31.7363 11.3286 31.7364 11.3395 31.7272 11.3553C31.6834 11.4706 31.5724 11.6239 31.4404 11.7692C31.3068 11.9177 31.1528 12.0625 30.9871 12.2271C30.9449 12.2701 30.9026 12.3129 30.8567 12.3647L30.7757 12.4616L30.7173 12.5605C30.6523 12.6653 30.5955 12.785 30.5476 12.9132C30.5041 13.0472 30.467 13.1942 30.4785 13.3726C30.4787 13.5456 30.5588 13.7488 30.6674 13.9158C30.9101 14.2457 31.1993 14.4016 31.424 14.5261C31.6555 14.6474 31.8621 14.7361 32.0504 14.8164C32.4127 14.97 32.7454 15.1092 32.9684 15.2181C33.1046 15.282 33.2185 15.3482 33.315 15.4097C33.3579 15.4402 33.3996 15.4699 33.4214 15.4926C33.4417 15.5088 33.4379 15.5074 33.4379 15.5074L33.4366 15.5085C33.4386 15.508 33.4394 15.5066 33.44 15.5053C33.433 15.4988 33.4087 15.4783 33.3979 15.4664C33.3615 15.4374 33.3279 15.4109 33.2859 15.3842C33.2021 15.3305 33.1083 15.2744 32.88 15.1648C33.028 15.2256 33.1685 15.2866 33.2784 15.3474C33.3392 15.3775 33.3805 15.4074 33.4249 15.4344C33.441 15.4473 33.4578 15.4596 33.4756 15.4715L33.4909 15.4811C33.5063 15.4911 33.5179 15.5077 33.5193 15.5259C33.523 15.5309 33.515 15.5506 33.5051 15.5722C33.4965 15.5919 33.4576 15.632 33.4389 15.6634C33.3736 15.7473 33.1463 15.8454 32.8888 15.9105C32.6273 15.9803 32.3301 16.0325 32.0135 16.1173C32.2447 16.0824 32.3009 16.0994 32.7859 16.0325L32.1834 16.1383C32.0442 16.1899 31.8564 16.237 31.6316 16.3459C31.5763 16.3685 31.5189 16.4029 31.4612 16.4414L31.3749 16.4982L31.2936 16.5748L31.215 16.6553L31.155 16.7554C31.1367 16.7895 31.116 16.8236 31.1026 16.8591L31.0778 16.9703C31.027 17.2717 31.1363 17.5392 31.2627 17.7497C31.3945 17.9615 31.5485 18.1145 31.6667 18.2298C31.5341 18.1514 31.9083 18.5244 32.2167 18.7881L32.1104 18.6663C32.405 18.9265 32.7077 19.19 32.8117 19.435C32.8269 19.4652 32.8401 19.4954 32.844 19.5261C32.8502 19.5566 32.8632 19.587 32.8608 19.6185C32.8619 19.6498 32.8644 19.6808 32.8681 19.7124C32.8605 19.7348 32.8551 19.7563 32.853 19.7796C32.824 19.8594 32.7665 19.909 32.6238 19.9526C32.3381 20.0356 31.9132 20.0182 31.5172 19.9969C31.1145 19.9776 30.6958 19.9326 30.2468 20.027C29.9924 20.0871 29.8104 20.2137 29.7217 20.295C29.6134 20.4099 29.5667 20.5457 29.5334 20.6723C29.5091 20.7986 29.5023 20.9221 29.5119 21.0364C29.5268 21.2677 29.5784 21.4775 29.6282 21.6785C29.5913 21.6335 29.6412 21.8878 29.6681 22.0623C29.6926 22.2367 29.7019 22.3475 29.6426 22.0926C29.7577 22.5558 29.7423 22.7043 29.4179 22.6987C29.0534 22.7173 28.6108 22.4823 28.1194 22.2964C27.9052 22.2028 27.6773 22.1081 27.4192 22.0394C27.1596 21.9732 26.8735 21.9271 26.5582 22.0012C26.2392 22.0903 26.0472 22.2896 25.926 22.475C25.8034 22.6633 25.7275 22.8516 25.6538 23.0296C25.581 23.2069 25.5135 23.3787 25.4284 23.5166C25.4051 23.5468 25.3865 23.5845 25.3608 23.6097L25.3249 23.6517L25.2696 23.7115C25.2149 23.7748 25.154 23.8271 25.0947 23.8644C24.9899 23.9369 24.8716 23.9433 24.7456 23.9001C24.5973 23.8454 24.4216 23.7281 24.2516 23.5956C23.9064 23.331 23.5642 23.0071 23.1134 22.7442C22.8866 22.6156 22.6207 22.5017 22.329 22.4623C22.185 22.4468 22.0353 22.4417 21.9009 22.4645C21.7617 22.4829 21.6547 22.5129 21.5345 22.5435C21.3015 22.6089 21.0928 22.6993 20.8928 22.788C20.6985 22.8754 20.4951 22.9747 20.3382 23.0197C20.2045 23.0672 20.028 23.0472 19.9173 22.941C19.8148 22.8491 19.7035 22.6773 19.621 22.4953L19.6361 22.5704C19.5019 22.3226 19.413 22.0711 19.3078 21.8047C19.1992 21.5431 19.0821 21.2639 18.8378 21.0196C18.7177 20.9022 18.5556 20.7923 18.3759 20.7405C18.2011 20.6856 18.0209 20.6626 17.842 20.6524C17.4837 20.632 17.1218 20.6675 16.7384 20.6493C16.6036 20.6516 16.458 20.6483 16.3181 20.6198C16.1761 20.5842 16.0255 20.5352 15.8928 20.4642C15.7612 20.3951 15.6413 20.2898 15.5955 20.161C15.5469 20.0339 15.5618 19.9013 15.5881 19.7802C15.6479 19.5378 15.7458 19.3253 15.796 19.1419C15.8497 18.9594 15.8614 18.8094 15.8428 18.7202C15.8559 18.5967 15.8392 18.4835 15.7976 18.3841C15.7623 18.2924 15.6834 18.2179 15.6038 18.1505C15.4359 18.02 15.2319 17.9426 15.0289 17.8806C14.617 17.759 14.1791 17.7016 13.5587 17.6512C13.7187 17.689 13.4179 17.6716 13.1507 17.6661C12.8826 17.66 12.6471 17.656 12.9607 17.6938C13.3804 17.7525 13.5919 17.7748 13.7906 17.7987C13.9871 17.824 14.1734 17.8429 14.4974 17.9346L14.4803 17.9158C14.8545 18.0009 15.2348 18.1337 15.4257 18.3C15.5269 18.3898 15.5303 18.4191 15.5496 18.542C15.5567 18.6493 15.5277 18.7791 15.4727 18.9196C15.4172 19.0612 15.3403 19.2102 15.2626 19.3792C15.1917 19.5576 15.092 19.72 15.1039 20.0453C15.1169 20.3475 15.3439 20.644 15.6517 20.8172C15.7931 20.8997 15.9112 20.9489 16.0404 20.9966C16.1088 21.0181 16.1626 21.0436 16.2442 21.0601C16.323 21.0791 16.3985 21.0938 16.4623 21.1015C16.9957 21.1684 17.4026 21.1119 17.7677 21.1356C17.9456 21.1444 18.104 21.168 18.2141 21.2095C18.2843 21.236 18.3551 21.2875 18.4291 21.3882C18.5806 21.5922 18.6735 21.9304 18.7993 22.3043C18.8669 22.5007 18.9516 22.6895 19.0543 22.891C19.1434 23.0661 19.3737 23.4105 19.716 23.5705C19.9388 23.6887 20.2065 23.7114 20.4472 23.6734C20.7035 23.6344 20.8454 23.5635 20.9848 23.5105C21.2506 23.3959 21.4709 23.2889 21.6961 23.2137L21.8626 23.1637L22.0314 23.127C22.1287 23.1112 22.1984 23.1051 22.2805 23.1167C22.4393 23.1381 22.6339 23.2244 22.8395 23.3641C23.0452 23.5018 23.2545 23.6793 23.4802 23.8687C23.714 24.0572 23.9395 24.2673 24.3164 24.4601C24.4956 24.5523 24.7923 24.6462 25.047 24.6295C25.3015 24.6225 25.5635 24.5092 25.7026 24.4001C25.7777 24.3448 25.8458 24.2869 25.9018 24.2286L26.0496 24.0666C26.1617 23.9327 26.2378 23.7964 26.2946 23.6734C26.4194 23.4057 26.4996 23.1575 26.6061 22.9618C26.7125 22.7646 26.8348 22.6639 26.9131 22.6707C27.0699 22.6491 27.3194 22.7088 27.5901 22.8165C27.8613 22.9205 28.1523 23.0639 28.4803 23.1946C28.6477 23.2596 28.8277 23.3223 29.0328 23.3675C29.2632 23.4098 29.4287 23.4196 29.6536 23.4081C29.898 23.3894 30.1506 23.3089 30.3085 23.1561C30.3906 23.0817 30.4477 22.989 30.4865 22.8914C30.5257 22.7952 30.5445 22.6819 30.5472 22.6C30.5567 22.2596 30.4751 22.0043 30.4179 21.7569C30.3568 21.5137 30.2998 21.29 30.2843 21.0996C30.2665 20.9183 30.3078 20.7985 30.3678 20.7544C30.4237 20.7076 30.4998 20.6842 30.6508 20.6752C31.0119 20.6233 31.5616 20.703 32.1588 20.7021C32.4606 20.6935 32.7904 20.6963 33.1584 20.5345C33.3397 20.4551 33.5172 20.3048 33.6013 20.1209C33.6486 20.0318 33.658 19.9343 33.6782 19.8392C33.6792 19.7525 33.6732 19.6672 33.6668 19.5807C33.6368 19.408 33.5737 19.2295 33.4769 19.0804C33.3859 18.9246 33.2718 18.7993 33.1607 18.6803C32.9348 18.4463 32.702 18.2601 32.4973 18.0791C32.2924 17.8996 32.1132 17.7261 32.0001 17.5599C31.8835 17.397 31.8433 17.2237 31.8664 17.1438C31.8653 17.1578 31.8609 17.1703 31.857 17.1784C31.867 17.1565 31.8585 17.1267 31.8781 17.1129C31.8851 17.1042 31.8859 17.0937 31.8931 17.084C31.9049 17.0757 31.9155 17.0669 31.9252 17.0572C31.9656 17.0183 32.0473 16.9817 32.1363 16.9485C32.3249 16.8843 32.5632 16.8444 32.8082 16.801C33.0554 16.7566 33.3175 16.7147 33.6013 16.627C33.6729 16.6008 33.7448 16.5742 33.8176 16.5475C33.8913 16.511 33.9648 16.4746 34.0383 16.4333C34.1097 16.3808 34.1892 16.3266 34.2496 16.2669C34.3036 16.2042 34.3582 16.1482 34.4086 16.0745C34.3902 16.0712 34.5187 15.8807 34.5251 15.7467C34.5314 15.73 34.5556 15.6809 34.552 15.5951C34.5587 15.5105 34.5403 15.3917 34.4758 15.2524C34.4356 15.1856 34.4001 15.1075 34.333 15.0372C34.3016 15.0009 34.2679 14.9638 34.2319 14.9266C34.1978 14.895 34.1646 14.8686 34.1287 14.8387C33.986 14.7212 33.8264 14.6275 33.6581 14.5407C33.3187 14.3668 32.9491 14.2319 32.5674 14.0809C32.3718 14.0056 32.1819 13.9325 32.0033 13.8523C31.8266 13.7737 31.6629 13.6848 31.5719 13.6038C31.4802 13.5229 31.4606 13.4723 31.4617 13.3546C31.4702 13.2406 31.5198 13.0984 31.5982 12.9643C31.6157 12.9284 31.6177 12.927 31.6436 12.8939C31.6629 12.8677 31.6942 12.8357 31.7183 12.8072C31.7763 12.7457 31.8329 12.6853 31.8884 12.6262C32.0033 12.5043 32.1163 12.3857 32.2156 12.2643C32.4168 12.0266 32.5701 11.7813 32.6236 11.5405C32.6842 11.2606 32.5935 11.0711 32.5674 11.0102C32.523 10.9397 32.4837 10.865 32.4128 10.8059L32.3167 10.7112C32.2817 10.6824 32.2361 10.6635 32.196 10.6389C32.1022 10.5742 31.9861 10.5461 31.8785 10.5041C31.7548 10.4786 31.6497 10.4575 31.5598 10.4558C31.3661 10.44 31.199 10.4556 31.0323 10.4693C30.7065 10.5035 30.4097 10.561 30.1253 10.597C29.8496 10.6363 29.5539 10.6457 29.4261 10.5912C29.391 10.5809 29.349 10.5496 29.3089 10.5346C29.2871 10.5087 29.2514 10.4956 29.2394 10.4706C29.1987 10.4342 29.1914 10.3739 29.1746 10.2988C29.162 10.1322 29.2156 9.91043 29.2865 9.68905C29.3562 9.46371 29.4452 9.23352 29.5031 8.96276C29.5155 8.89195 29.5276 8.82104 29.5335 8.74353C29.5349 8.66188 29.539 8.57289 29.526 8.50397C29.51 8.3649 29.484 8.19868 29.3895 8.00736C29.3017 7.81172 29.1372 7.64206 28.9371 7.53093C28.7345 7.41951 28.4971 7.37456 28.2709 7.37794C28.1611 7.37982 28.1007 7.39334 28.0269 7.40377C27.9532 7.4142 27.8938 7.43145 27.8264 7.44527C27.7001 7.47665 27.5834 7.51161 27.473 7.54685C27.2651 7.6169 27.0649 7.68406 26.8902 7.74303C26.5269 7.80464 26.4801 7.8855 26.0917 7.95462C25.8359 7.97259 25.6676 7.93482 25.5987 7.89347C25.5262 7.85803 25.4725 7.79135 25.4225 7.74192C25.3326 7.62089 25.2959 7.61914 25.3946 7.78342C25.3454 7.72739 25.2956 7.66253 25.2518 7.5803C25.2023 7.50121 25.1727 7.43211 25.1372 7.34099C25.0694 7.16286 25.0099 6.96623 24.945 6.77125C24.8801 6.57526 24.8124 6.37758 24.7229 6.17819C24.6754 6.0743 24.6347 5.98764 24.5597 5.86673C24.481 5.74262 24.3783 5.61101 24.2598 5.51171C24.1475 5.42002 24.0165 5.34883 23.8744 5.3096C23.7321 5.27047 23.5836 5.27115 23.4469 5.29743C23.3769 5.30816 23.314 5.33444 23.2524 5.36355C23.1922 5.39391 23.1227 5.41066 23.0707 5.45198C23.0163 5.48982 22.9633 5.53 22.9128 5.57146C22.8666 5.61274 22.8373 5.653 22.7999 5.69453C22.7345 5.76613 22.7045 5.82492 22.6653 5.87893C22.6257 5.93283 22.5994 5.97968 22.5721 6.022C22.5148 6.10717 22.4706 6.17186 22.4238 6.23237C22.2826 6.57253 22.2377 6.67579 22.1752 6.78296C22.1128 6.88251 22.0543 7.01044 21.8558 7.22258C21.8205 7.23691 21.7464 7.30636 21.6387 7.36262C21.5314 7.40778 21.3409 7.44694 21.172 7.41698C20.9974 7.39146 20.7894 7.28381 20.6235 7.16843C20.4569 7.05304 20.3293 6.94868 20.2861 6.90736L20.3953 6.99124C20.0248 6.68262 19.7468 6.35217 19.274 6.07961C19.2174 6.04542 19.1539 6.01304 19.0801 5.98387C19.0098 5.95351 18.939 5.92363 18.8606 5.90757C18.7826 5.88901 18.7084 5.86886 18.6239 5.85663C18.5331 5.84833 18.44 5.84357 18.3478 5.84365C17.9735 5.85454 17.6531 6.09157 17.5414 6.43146C17.4421 6.73523 17.4519 6.98558 17.4486 7.23165C17.4501 7.47394 17.4611 7.70577 17.4419 7.89927C17.4197 8.1026 17.3715 8.29377 17.293 8.41642C17.2523 8.47469 17.2132 8.51848 17.1677 8.53833C17.1236 8.56233 17.0752 8.5792 16.9947 8.58121C16.8415 8.59299 16.6021 8.54187 16.3626 8.4699C16.118 8.39488 15.8618 8.29806 15.5934 8.19951C15.3215 8.10216 15.0449 7.99607 14.6974 7.92553C14.6192 7.90938 14.4903 7.89127 14.3731 7.88864C14.2564 7.88741 14.14 7.89462 14.0335 7.92275C13.9268 7.94838 13.824 7.98855 13.7427 8.04927C13.6977 8.07596 13.6614 8.11 13.63 8.148C13.5982 8.18538 13.5594 8.21786 13.5323 8.25798C13.476 8.35319 13.4266 8.45231 13.4041 8.55962C13.3779 8.67052 13.3758 8.77149 13.3833 8.8596C13.3979 9.04303 13.45 9.20499 13.5091 9.3515C13.6314 9.64234 13.7834 9.88391 13.9236 10.1108C13.9814 10.1213 13.6241 9.64433 13.6757 9.58807C13.8535 9.9284 14.0573 10.2273 14.2246 10.518C14.3921 10.8029 14.5253 11.0944 14.5216 11.2873C14.5225 11.3815 14.4868 11.445 14.4407 11.498C14.3952 11.54 14.3016 11.5925 14.1726 11.6325C13.9102 11.714 13.5464 11.7505 13.1687 11.8001C13.0979 11.8067 13.0229 11.814 12.9481 11.821C12.8702 11.8313 12.8098 11.8305 12.6721 11.8574C12.5567 11.8804 12.4408 11.8952 12.3519 11.9194C12.2635 11.9438 12.1892 11.9643 12.1355 11.9792C11.8009 12.1147 11.7216 12.1879 11.657 12.2295C11.5972 12.2725 11.5613 12.3038 11.3983 12.4056C11.4132 12.4283 11.435 12.4615 11.4602 12.4998L11.4455 12.5541C11.6976 12.9008 11.8423 13.1375 12.1078 13.378C12.412 13.6611 12.5167 13.7354 12.7395 13.8843C12.773 13.8887 12.9262 13.9901 13.061 14.086C13.0497 14.1238 13.4568 14.3719 13.4007 14.3836L13.4065 14.3841C13.4739 14.4388 13.5155 14.4753 13.5759 14.5434C13.6356 14.5896 13.9043 14.8241 13.8817 14.9968C13.8886 15.1008 13.8185 15.2409 13.729 15.3545C13.6425 15.4687 13.5493 15.5562 13.5231 15.5856L13.4557 15.6288C13.2712 15.7734 13.2041 15.8637 13.3289 15.7824L13.0764 15.9681L13.1036 15.943C13.018 16.0061 12.9289 16.0776 12.8511 16.1397C12.8059 16.1704 12.742 16.1929 12.7905 16.1278C12.7597 16.1567 12.7285 16.1862 12.6971 16.2159L12.5708 16.3271C12.4663 16.4164 12.3368 16.5286 12.251 16.6316C12.3693 16.4896 12.5866 16.3335 12.698 16.2541C12.8087 16.1776 12.9225 16.0984 13.0375 16.0188C13.2822 15.8556 13.5176 15.7187 13.7094 15.5838C13.5838 15.7187 13.2654 15.915 13.08 16.0651C13.0196 16.1013 12.9413 16.1582 12.8659 16.2079C12.7847 16.2636 12.7147 16.3082 12.5635 16.4247C12.427 16.5351 12.2765 16.6651 12.1986 16.8073C12.1186 16.9456 12.0972 17.1119 12.1659 17.2641C12.2007 17.3271 12.2451 17.376 12.3167 17.4319C12.348 17.4622 12.3928 17.4909 12.4422 17.5272C12.4875 17.5661 12.5539 17.6033 12.6297 17.6533C12.7577 17.7629 13.0629 17.8481 13.2758 17.9381L13.178 17.9128L13.0522 17.8703C12.9703 17.8442 12.8829 17.8084 12.7932 17.7681L12.661 17.7099L12.5441 17.6399C12.4605 17.596 12.4017 17.539 12.334 17.486C12.3353 17.4992 12.3753 17.5398 12.4385 17.5968C12.4736 17.6235 12.5205 17.6509 12.569 17.682C12.6156 17.7146 12.673 17.7448 12.7385 17.7714C12.8016 17.7993 12.8664 17.828 12.9303 17.8563C12.9909 17.8789 13.0505 17.9012 13.1071 17.9223C13.1694 17.9464 13.2059 17.9578 13.2412 17.9695C13.2766 17.9818 13.308 17.9925 13.3339 18.0014C13.3836 18.01 13.5332 18.0518 13.7058 18.0912C13.8777 18.1296 14.0686 18.1661 14.2112 18.1874C14.0831 18.2005 14.4384 18.2519 14.5844 18.3039C14.7574 18.3452 14.8606 18.3604 14.7985 18.33C14.8302 18.3177 14.666 18.2701 14.5122 18.2329C14.3577 18.1959 14.2189 18.1642 14.3535 18.1682C14.4217 18.1999 14.7751 18.2628 14.9417 18.3136C14.9501 18.2936 14.8263 18.2654 14.9457 18.2767C15.1368 18.336 15.3354 18.3923 15.4192 18.4638C15.385 18.4524 15.3175 18.4149 15.2652 18.3937C15.3757 18.4445 15.0653 18.3328 14.715 18.2911C14.3693 18.2458 13.9717 18.2117 14.1667 18.2395C14.1197 18.2245 14.5464 18.2581 14.892 18.3237C15.2429 18.3858 15.5361 18.5277 15.4668 18.4884C15.3367 18.4116 15.5871 18.5053 15.4486 18.4276C15.3918 18.4079 15.335 18.3899 15.2765 18.3755C15.0801 18.2852 14.995 18.2274 15.0783 18.2365C15.2573 18.3019 14.9944 18.2381 14.7082 18.2084C14.4229 18.1773 14.0994 18.1537 14.2804 18.175L14.1351 18.1373C14.2957 18.1522 14.6886 18.2146 14.8172 18.2751C14.8226 18.2551 15.0065 18.2941 15.147 18.3397L15.1951 18.361C15.3416 18.4054 15.5228 18.509 15.4515 18.4402C15.2535 18.341 15.1818 18.3089 15.1897 18.2887C15.1972 18.2691 15.2805 18.2712 15.3664 18.2795C15.4531 18.2855 15.5405 18.302 15.5566 18.2837C15.5708 18.2689 15.5147 18.2108 15.286 18.1167C15.6416 18.321 15.1522 18.0834 14.7212 18.0047C14.683 17.9796 14.4967 17.9148 14.1794 17.8448C13.903 17.796 14.0141 17.8303 13.9598 17.8322C13.807 17.7929 13.514 17.7113 13.5592 17.6958C13.3375 17.6665 13.2235 17.5792 12.9563 17.4819C12.7198 17.3856 12.9612 17.4997 12.7874 17.4306C12.7057 17.3849 12.6173 17.3308 12.5516 17.2552C12.4808 17.1819 12.4617 17.0769 12.4973 16.9957C12.5658 16.8319 12.7198 16.7166 12.8202 16.6321C12.9254 16.5789 13.1757 16.4415 13.0476 16.5956C12.8753 16.7304 12.8932 16.6957 12.9108 16.6613C12.931 16.6282 12.9472 16.5905 12.7691 16.7512C12.8766 16.6981 12.7977 16.7659 12.7093 16.8624C12.664 16.9103 12.6219 16.9721 12.6083 17.0303C12.5928 17.0891 12.6224 17.1418 12.6483 17.1558C12.6275 17.0878 12.6645 16.9849 12.7418 16.9042C12.8167 16.8204 12.9094 16.7437 12.9969 16.6672L12.9535 16.6919C13.1113 16.5555 13.46 16.2557 13.6817 16.1379C13.6509 16.1871 13.7487 16.1342 13.6185 16.2375L13.8726 16.0512C13.8993 16.0216 13.9264 15.9916 13.8512 16.0446C13.9574 15.9431 14.0764 15.8517 14.1703 15.7808C14.1794 15.777 14.2594 15.7009 14.3515 15.5722C14.4415 15.4437 14.5349 15.2493 14.5288 15.0394C14.529 14.83 14.4286 14.6307 14.336 14.5043C14.2419 14.3769 14.1716 14.3036 14.1834 14.3122C14.0149 14.1335 13.9929 14.071 13.7851 13.9309C13.7764 13.9304 13.8965 14.017 14.0607 14.1631C14.22 14.3107 14.4175 14.5334 14.502 14.7904C14.5821 15.0504 14.5095 15.3017 14.4311 15.4428C14.3518 15.5856 14.2966 15.6465 14.3447 15.588C14.3741 15.5519 14.5076 15.4049 14.5478 15.1457C14.6061 14.8872 14.4499 14.539 14.2072 14.2862C13.9613 14.0291 13.6623 13.8308 13.4351 13.6777C13.2059 13.5257 13.0451 13.4162 13.0196 13.3866C12.8642 13.2805 12.6883 13.1502 12.7064 13.1891C12.4783 12.9944 12.8061 13.2219 12.664 13.0808C12.6573 13.0794 12.6664 13.0965 12.6182 13.0546C12.5772 13.0103 12.5417 12.9653 12.5108 12.921C12.4094 12.8405 12.3172 12.7313 12.2405 12.6108C12.3581 12.5114 12.5477 12.452 12.7185 12.4072C12.8052 12.3828 12.8935 12.3669 12.9789 12.3474C13.073 12.3276 13.1632 12.3085 13.2507 12.29C13.1819 12.3104 13.1102 12.3369 13.0185 12.3678C12.9413 12.3956 12.8519 12.4276 12.7393 12.4679L12.6862 12.4698C12.6728 12.4779 12.6199 12.4993 12.576 12.5198C12.5344 12.544 12.503 12.5677 12.5213 12.5726C12.6276 12.5308 12.7257 12.5056 12.8232 12.4796C12.9214 12.4538 13.011 12.4324 13.1791 12.3957C13.2392 12.393 13.3082 12.3898 13.3568 12.3877C13.3546 12.3852 13.3493 12.3837 13.3495 12.3805C13.4579 12.3787 13.4479 12.3823 13.4116 12.3952C13.4072 12.3973 13.4013 12.3998 13.3909 12.4028C13.4948 12.4172 13.7934 12.3765 14.1463 12.295C14.3218 12.2498 14.51 12.1949 14.6807 12.1095C14.8484 12.0234 15.0008 11.902 15.0824 11.7757C15.1533 11.6182 15.0911 11.7591 15.1469 11.5552C15.2259 11.2681 15.1464 11.0195 15.0647 10.7961C14.9759 10.5704 14.8576 10.3563 14.7105 10.1099C14.5861 9.9648 14.5682 9.95707 14.6596 10.1546L14.4383 9.7877C14.5766 9.93877 14.4839 9.76285 14.4049 9.59512C14.3259 9.42659 14.2683 9.26949 14.3952 9.43206C14.357 9.32613 14.2529 9.11821 14.2143 8.95484C14.2025 8.94669 14.1864 8.93591 14.174 8.90218C14.1599 8.8671 14.1475 8.8063 14.168 8.73633C14.1856 8.69644 14.2088 8.67255 14.2098 8.67498C14.2484 8.62487 14.2787 8.60999 14.3101 8.59675C14.3433 8.58747 14.381 8.57472 14.4593 8.58537C14.5059 8.60804 14.4429 8.61637 14.4569 8.63511C14.4859 8.62962 14.5114 8.63235 14.5364 8.63427C14.5671 8.64035 14.6077 8.64492 14.6397 8.65515C14.7063 8.67349 14.7571 8.69338 14.8084 8.71699C14.9103 8.76219 15.0068 8.81164 15.2629 8.90303C15.4244 8.95875 15.6712 9.05006 15.8929 9.11922C16.1127 9.18912 16.3081 9.23107 16.3211 9.215C16.5755 9.28259 16.7171 9.30928 16.7819 9.32756C16.8459 9.34592 16.8319 9.35925 16.8022 9.37154Z" fill="#828282" fill-opacity="0.5"/>
<path d="M18.4129 22.472L18.4711 22.6575C18.3614 22.3555 18.2852 22.0622 18.1803 21.8079C18.0761 21.5502 17.943 21.3543 17.7799 21.2665C17.8641 21.3284 17.9277 21.4068 17.9879 21.5179C18.0469 21.629 18.0964 21.7667 18.1405 21.9177C18.2318 22.2219 18.2915 22.57 18.454 22.9591C18.5375 23.1527 18.6515 23.3675 18.8596 23.577C19.0619 23.7877 19.3894 23.9625 19.6801 24.0131C19.971 24.0683 20.211 24.0425 20.4046 24.0024C20.5064 23.9779 20.6044 23.9463 20.6946 23.9153C20.7806 23.874 20.8621 23.8326 20.933 23.7874C20.9826 23.8054 21.1433 23.7892 21.3088 23.7215C21.4847 23.6584 21.6632 23.5514 21.817 23.455C21.9723 23.353 22.0904 23.2822 22.1615 23.2467C22.2324 23.2121 22.2367 23.2177 22.2364 23.2036C22.2439 23.1926 22.245 23.1972 22.2476 23.1919C22.25 23.1885 22.2526 23.1787 22.2572 23.1813C22.2613 23.1804 22.2656 23.1768 22.2715 23.1712C22.2814 23.1723 22.2932 23.1756 22.3053 23.1754C22.3576 23.178 22.4606 23.2215 22.5607 23.2822C22.4194 23.1869 22.2909 23.1608 22.2637 23.1709C22.2911 23.1607 22.4194 23.1869 22.5607 23.2822C22.7231 23.3742 22.927 23.5426 23.1365 23.6983C23.3501 23.8579 23.5805 24.027 23.867 24.1771C24.1461 24.324 24.5232 24.4613 24.9181 24.4323C25.0157 24.4278 25.1088 24.4148 25.1957 24.3902C25.2876 24.3719 25.3665 24.3401 25.4447 24.3069C25.6017 24.244 25.7539 24.1365 25.863 24.0244C26.0874 23.793 26.1859 23.5353 26.2688 23.3127C26.3494 23.089 26.4167 22.881 26.5091 22.74C26.6074 22.5967 26.6836 22.5496 26.8196 22.5289L26.9634 22.5213C26.9997 22.5245 27.0261 22.5223 27.0642 22.5313C27.1356 22.5458 27.2294 22.5721 27.3352 22.6158C27.5727 22.7055 27.9384 22.9096 28.4441 23.1561C28.7038 23.273 28.9964 23.4137 29.4208 23.478C29.6285 23.5123 29.8867 23.4982 30.122 23.4245C30.179 23.4052 30.2288 23.3777 30.2829 23.3513C30.3372 23.3217 30.3995 23.2936 30.4429 23.2569C30.5267 23.1805 30.5954 23.1102 30.6628 23.0353C30.7156 22.9494 30.7655 22.8591 30.8057 22.7679C30.8294 22.6766 30.8531 22.5811 30.8649 22.4895C30.8666 22.4033 30.868 22.3144 30.8631 22.2302C30.8514 22.1523 30.8399 22.0748 30.8282 21.9979C30.7648 21.7085 30.6792 21.4753 30.6306 21.2805C30.5785 21.0867 30.5617 20.9362 30.587 20.8683C30.5862 20.8451 30.5941 20.8311 30.6036 20.8216C30.6125 20.8108 30.6107 20.7962 30.6202 20.7873C30.6514 20.7744 30.6415 20.7516 30.6791 20.7392C30.7187 20.7244 30.7236 20.6983 30.7863 20.6827C30.8341 20.6692 30.8909 20.6341 30.9261 20.6317C30.858 20.6459 30.8061 20.6742 30.7654 20.6837C30.7162 20.6964 30.7123 20.7186 30.648 20.7434C30.6785 20.721 30.6961 20.6926 30.7333 20.6637C30.7821 20.639 30.8305 20.6093 30.8759 20.5826C30.9315 20.5493 31.0788 20.521 31.2259 20.5012C31.5385 20.462 31.8925 20.4542 32.2692 20.405C32.1323 20.3945 32.0991 20.3784 31.7999 20.3591C31.9194 20.3606 32.0425 20.3589 32.1688 20.3548C32.3326 20.3055 32.6204 20.2745 32.9231 20.1394L33.0342 20.0858L33.1386 20.0125C33.2098 19.9678 33.2622 19.902 33.3113 19.8408C33.4013 19.7163 33.4452 19.5805 33.4467 19.4839C33.4584 19.5305 33.4812 19.4773 33.502 19.3741C33.5068 19.2684 33.4947 19.1052 33.4437 18.9789L33.4535 19.0864C33.3897 18.8244 33.2431 18.6169 33.1024 18.416C32.9571 18.2161 32.7984 18.0406 32.6466 17.8653C32.3482 17.5245 32.0527 17.197 31.9365 16.9279C31.9206 16.8913 31.9078 16.858 31.9022 16.8311C31.9018 16.8054 31.904 16.785 31.9066 16.7697C31.8583 16.6272 31.8833 16.4912 31.9508 16.4247C31.9574 16.4373 31.9701 16.4336 31.9919 16.4259C32.0238 16.4224 32.044 16.4062 32.0849 16.3995C32.1614 16.3839 32.208 16.3731 32.1119 16.4211C32.2593 16.3394 32.5385 16.3146 32.8247 16.2934C33.1119 16.266 33.4417 16.25 33.7576 16.0792C34.0756 15.9399 34.2504 15.6129 34.188 15.2898C34.1608 15.1276 34.0681 14.9677 33.9674 14.8515C33.8654 14.7273 33.75 14.6343 33.6347 14.5441C33.1691 14.2079 32.68 13.9974 32.2307 13.7613C32.0078 13.6466 31.7863 13.5242 31.6407 13.4004C31.6057 13.3685 31.5836 13.3415 31.5514 13.3076L31.4623 13.1816C31.4132 13.099 31.3719 13.0199 31.3636 12.9453C31.3336 12.7974 31.3989 12.6473 31.5325 12.496C31.6634 12.3451 31.8408 12.2017 32.0048 12.0342L31.956 12.0531C32.1801 11.8317 32.3919 11.5238 32.2917 11.1553C32.2482 10.9792 32.1124 10.8103 31.9112 10.7153C31.7073 10.6159 31.4889 10.584 31.2656 10.5557C30.9444 10.5578 30.5738 10.5902 30.249 10.6234C29.9248 10.6579 29.644 10.685 29.5166 10.7214C29.3299 10.7119 29.1685 10.7015 29.014 10.6692C28.8582 10.6351 28.6953 10.5873 28.5685 10.4961C28.441 10.4073 28.3394 10.2864 28.2885 10.136C28.2424 9.98242 28.2318 9.81966 28.2632 9.66245C28.2223 9.74212 28.2283 9.57354 28.2625 9.44126C28.2903 9.29977 28.3175 9.20623 28.2464 9.33138C28.1388 9.52304 28.1114 9.64487 28.0945 9.76152C28.0913 9.82613 28.0843 9.8815 28.0845 9.96131C28.0913 10.0489 28.0938 10.1515 28.1399 10.2859L28.15 10.2659C28.2511 10.5755 28.6313 10.8089 28.9629 10.8873C29.2607 10.9639 29.5206 10.9813 29.7702 10.9943C30.2644 11.0162 30.7279 10.9963 31.1453 11.0276C31.3429 11.0397 31.5619 11.0853 31.6009 11.1113C31.6548 11.1365 31.6857 11.1886 31.6809 11.2341C31.6782 11.2468 31.6803 11.2552 31.6741 11.2709C31.6632 11.2907 31.6599 11.3103 31.6519 11.3321C31.6356 11.3546 31.623 11.3775 31.6096 11.4017L31.5442 11.4797C31.4414 11.5898 31.2874 11.7086 31.1185 11.8521C31.0125 11.9503 30.8939 12.07 30.7853 12.2154C30.6801 12.3689 30.5821 12.564 30.5789 12.7955C30.5748 12.9058 30.5992 13.0215 30.6264 13.1279C30.6664 13.2241 30.7046 13.3386 30.7581 13.4177C30.8159 13.5027 30.8531 13.5745 30.9311 13.6693C30.9719 13.7173 31.014 13.7648 31.0574 13.8111L31.186 13.92C31.5297 14.188 31.8389 14.3332 32.1378 14.4948C32.434 14.6498 32.7181 14.7964 32.9543 14.9465C33.0183 14.9864 33.0717 15.0271 33.1324 15.0668C33.1737 15.1061 33.2368 15.1473 33.2652 15.1825C33.2808 15.2003 33.2973 15.2171 33.315 15.2341C33.328 15.2495 33.3303 15.2631 33.3399 15.2736C33.3619 15.2935 33.3605 15.3112 33.3643 15.3305C33.3529 15.4101 33.3712 15.4692 33.0706 15.5243C32.8034 15.5753 32.4446 15.5772 32.0703 15.6388C31.8785 15.6784 31.6736 15.7195 31.4774 15.8471C31.2888 15.9702 31.1417 16.1772 31.1223 16.3558C31.0584 16.7081 31.1228 16.9612 31.2184 17.2143C31.5283 17.7494 31.9861 18.1841 32.3393 18.6335C32.5146 18.8507 32.6556 19.0815 32.6701 19.2219C32.6711 19.2389 32.6778 19.2559 32.6782 19.2731C32.674 19.2901 32.6711 19.3069 32.6696 19.3244C32.6738 19.3654 32.6466 19.3769 32.6456 19.4079C32.6107 19.4447 32.5788 19.4904 32.4876 19.5242C32.4996 19.5195 32.5116 19.515 32.5195 19.512C32.3514 19.5916 32.0822 19.609 31.8168 19.6107C31.5448 19.6149 31.26 19.5996 30.8974 19.6358C30.9029 19.6499 30.7947 19.6569 30.7356 19.6762C30.7135 19.6755 30.6367 19.6725 30.489 19.7147C30.4528 19.7254 30.4134 19.737 30.3708 19.7494C30.3352 19.7654 30.2969 19.7826 30.2563 19.801C30.1763 19.8439 30.0851 19.8695 29.9942 19.9424C29.8091 20.0652 29.613 20.2803 29.5519 20.5545C29.4989 20.8238 29.5537 21.0837 29.6218 21.3095C29.6934 21.5361 29.7776 21.7343 29.8388 21.9154C29.9043 22.0961 29.927 22.2436 29.9326 22.3618C29.9198 22.5746 29.778 22.6802 29.758 22.6729C29.7349 22.6862 29.7052 22.7153 29.6678 22.7176C29.5037 22.7645 29.2112 22.6678 28.9287 22.5294C28.6414 22.3913 28.3504 22.2156 28.0315 22.0497C27.8694 21.967 27.7014 21.8855 27.5078 21.8161C27.3172 21.7487 27.0846 21.6878 26.8411 21.695C26.7249 21.6935 26.6348 21.7068 26.5315 21.7124C26.4242 21.7349 26.3102 21.7587 26.2095 21.8017C26.0024 21.8877 25.8386 22.0253 25.7359 22.1641C25.5779 22.4246 25.5346 22.689 25.5116 22.8707C25.4264 23.0244 25.4768 23.0776 25.397 23.2483C25.2371 23.4418 25.1223 23.5114 25.0743 23.5548C25.023 23.5903 25.0302 23.6155 25.1238 23.5865C25.0929 23.6048 25.0685 23.6279 25.036 23.6471C24.998 23.6613 24.9617 23.6818 24.9241 23.694C24.8479 23.7139 24.775 23.7288 24.6993 23.7208C24.55 23.7128 24.3791 23.6467 24.2107 23.5505C24.0505 23.4671 23.8875 23.3576 23.7205 23.2372C23.5775 23.1353 23.5139 23.0569 23.4656 22.979C23.2685 22.8226 23.2016 22.7696 23.1273 22.7107C23.0419 22.6495 22.9818 22.5721 22.6712 22.423C22.6523 22.4105 22.6074 22.3927 22.5443 22.3722C22.4798 22.353 22.4027 22.3243 22.2956 22.3193C22.0874 22.2837 21.8278 22.3484 21.6494 22.4386C21.3117 22.633 21.1576 22.8352 21.0935 22.8641L21.1446 22.8152C20.9447 22.9684 20.7748 23.0572 20.6063 23.109C20.436 23.1642 20.2904 23.1749 20.0787 23.1815C19.7882 23.1634 19.7307 23.1341 19.5772 22.9153C19.4361 22.6929 19.3405 22.3567 19.2237 22.0125C19.0985 21.6683 18.9756 21.2723 18.5895 20.8868C18.3978 20.6972 18.1204 20.5433 17.8539 20.4699C17.723 20.4357 17.5921 20.4095 17.4613 20.3985C17.3328 20.3834 17.1699 20.3957 17.0715 20.4091C17.0765 20.4341 17.1504 20.4125 17.2879 20.4104C17.4202 20.4008 17.5342 20.4271 17.5464 20.4548C17.4727 20.4468 17.4036 20.4335 17.3213 20.4377L17.2024 20.4406L17.1038 20.4505C16.9713 20.4637 16.8581 20.4858 16.7488 20.507C16.531 20.5502 16.3334 20.5964 16.1481 20.6275C15.9664 20.6595 15.7883 20.6731 15.6912 20.655C15.6681 20.6511 15.6452 20.6482 15.6388 20.6414C15.6239 20.6396 15.6213 20.6325 15.6189 20.6303C15.6116 20.6334 15.6151 20.6185 15.6075 20.6193C15.6009 20.617 15.5943 20.5942 15.5866 20.5923C15.5756 20.5592 15.588 20.4921 15.6029 20.4701C15.6109 20.4193 15.6108 20.3945 15.604 20.3789C15.5964 20.3631 15.592 20.3478 15.6068 20.2926L15.6572 20.2897C15.6752 20.0979 15.8102 20.0376 15.8883 19.8069C15.8757 19.7884 15.9095 19.703 15.9453 19.6112C15.97 19.6176 15.9954 19.5424 16.0162 19.4634C16.0371 19.3831 16.0497 19.2935 16.0701 19.304L16.0669 19.2996C16.0715 19.2594 16.0754 19.2254 16.0795 19.1889C16.0801 19.1564 16.0817 19.1223 16.0853 19.0789C16.082 19.0455 16.0666 18.9379 16.0223 18.7914C15.9779 18.6443 15.8849 18.4497 15.7445 18.28C15.6052 18.1098 15.4293 17.9733 15.2913 17.8938C15.1524 17.8105 15.0495 17.7666 15.0159 17.7534L14.961 17.7149C14.7867 17.6278 14.7018 17.6282 14.7962 17.6777C14.728 17.6469 14.6581 17.613 14.5908 17.5863L14.6156 17.5932C14.548 17.565 14.4802 17.5369 14.4141 17.5123C14.3786 17.4954 14.3431 17.4615 14.4074 17.4658C14.3465 17.4504 14.2867 17.4369 14.2243 17.4179C14.119 17.3853 14.0618 17.3763 14.0095 17.3579C14.0506 17.3717 14.0929 17.3861 14.1362 17.4006C14.1667 17.4096 14.2037 17.4243 14.2272 17.4346L14.2887 17.4619C14.3713 17.4986 14.4575 17.5389 14.5443 17.5832C14.7174 17.6705 14.8945 17.7736 15.047 17.8916C14.9032 17.818 14.667 17.6832 14.5184 17.6321C14.4771 17.6075 14.4251 17.5816 14.3651 17.5526C14.3349 17.5388 14.3032 17.5242 14.2706 17.509C14.2355 17.494 14.2115 17.4812 14.1509 17.4588C14.0067 17.4112 13.8521 17.36 13.7161 17.3153C13.6596 17.3028 13.609 17.338 13.4881 17.2829C13.4358 17.2346 13.3465 17.2434 13.2528 17.1896C13.3731 17.2099 13.4865 17.2506 13.6086 17.2852C13.5958 17.2435 13.3207 17.1781 13.2351 17.1374C13.1877 17.1356 12.9727 17.0495 12.8577 17.0067C12.9241 16.9971 12.7727 16.9433 12.7496 16.9027C12.7088 16.8714 12.7042 16.8838 12.6959 16.8946C12.6767 16.9044 12.6856 16.9245 12.74 16.9618C12.789 16.9958 12.8452 17.028 12.7817 17.0213C12.7731 17.0066 12.7331 16.9826 12.6983 16.9606C12.6797 16.948 12.6585 16.9338 12.6439 16.9241C12.6251 16.939 12.6394 16.9415 12.6105 16.9461C12.5769 16.9104 12.5612 16.8631 12.6015 16.842C12.6022 16.8475 12.5898 16.8626 12.5878 16.875C12.5925 16.8618 12.5947 16.8717 12.6108 16.889C12.6197 16.8974 12.6326 16.9071 12.6501 16.9141C12.6597 16.9202 12.6646 16.9152 12.6673 16.9136C12.6738 16.9133 12.6824 16.9147 12.6931 16.9172C12.7915 16.946 12.9843 16.9891 12.8997 16.96C12.9071 16.9686 12.865 16.962 12.8063 16.9476C12.7489 16.9352 12.6773 16.905 12.6673 16.9136C12.6347 16.9086 12.6073 16.8717 12.6107 16.8545C12.6093 16.8445 12.613 16.8382 12.6124 16.8338C12.6115 16.8281 12.6061 16.8221 12.6088 16.8323C12.5784 16.8631 12.5865 16.8107 12.5576 16.8451C12.5564 16.8564 12.5586 16.8684 12.5653 16.8799C12.5515 16.9317 12.5474 16.9756 12.5161 16.9619C12.4927 16.9083 12.5626 16.9796 12.6426 16.981C12.7424 17.0088 12.8995 17.0411 12.8185 17.0169C12.8348 17.0291 12.8551 17.0407 12.8735 17.0529C12.7981 17.0398 12.6362 16.9636 12.6477 16.9346C12.637 16.9414 12.629 16.9418 12.6194 16.9427C12.6055 16.935 12.5881 16.9208 12.5809 16.9056C12.5804 16.9013 12.5817 16.8971 12.5826 16.8927C12.5653 16.8601 12.612 16.8213 12.5683 16.8422C12.5344 16.8879 12.5391 16.9174 12.5143 16.9237C12.4941 16.9315 12.4598 16.9183 12.4386 16.8978C12.4179 16.8786 12.4101 16.8555 12.3903 16.8561C12.3786 16.8583 12.311 16.8765 12.3102 16.9839C12.3388 16.8911 12.353 16.9076 12.3533 16.9573C12.3548 16.9833 12.3733 17.0203 12.4026 17.0543C12.4318 17.0875 12.4656 17.1142 12.5118 17.1427C12.5151 17.1657 12.5825 17.2393 12.7377 17.3195C12.8782 17.3742 12.8268 17.3377 12.8581 17.3374C12.9304 17.3784 13.0816 17.4385 13.0533 17.4549C13.1764 17.4646 13.2302 17.5322 13.3729 17.5628C13.4994 17.5846 13.3679 17.5483 13.4586 17.559C13.6444 17.6113 13.904 17.6842 14.0528 17.7262C14.1124 17.7675 14.2614 17.8656 14.1269 17.8564C13.8551 17.7658 14.2536 17.8266 13.9578 17.7531C14.0731 17.8367 13.6934 17.7025 13.6303 17.7268C13.7163 17.7756 13.9177 17.8217 14.0637 17.8572C14.0549 17.8519 14.0465 17.8459 14.0373 17.8413C14.1706 17.8768 14.4506 17.9679 14.573 18.0591C14.5314 18.0612 14.5847 18.1001 14.4894 18.0631C14.5478 18.089 14.6034 18.1179 14.6587 18.147C14.6832 18.1527 14.7084 18.1588 14.6621 18.1306C14.7493 18.1588 14.821 18.2116 14.8678 18.2569C14.8687 18.2697 15.0877 18.3847 15.2232 18.5659C15.3633 18.7452 15.3971 18.9638 15.39 18.9483C15.3962 19.0675 15.3631 19.0907 15.3686 19.2044C15.378 19.2172 15.4128 18.9254 15.2829 18.6806C15.1626 18.4344 14.9127 18.2944 14.9847 18.3442C14.9995 18.3664 15.0844 18.4272 15.1664 18.5327C15.2507 18.6362 15.3253 18.7891 15.3503 18.952C15.3818 19.1157 15.3569 19.2739 15.3172 19.3958C15.2792 19.517 15.2414 19.6004 15.2235 19.613C15.1895 19.6938 15.1515 19.7931 15.1825 19.783C15.1131 19.9156 15.1561 19.7245 15.0937 19.8144C15.0964 19.8181 15.1085 19.8107 15.0944 19.8418L15.0274 19.927C15.0039 20.0433 14.954 20.1815 14.9436 20.3359C14.9309 20.4882 14.9731 20.6601 15.0742 20.7738C15.016 20.7114 14.9134 20.6329 14.8729 20.4464L14.885 20.4158C14.8727 20.3889 14.8746 20.2442 14.8537 20.2444C14.8168 20.4047 14.8328 20.575 14.9466 20.7518C14.9593 20.7866 14.9708 20.8303 14.9888 20.8574C14.991 20.8554 14.9909 20.8518 14.9947 20.8513C15.0281 20.9142 15.0224 20.91 14.997 20.8925C14.9932 20.8904 14.9888 20.8877 14.9825 20.8822C14.9945 20.9152 15.0204 20.9778 15.1033 21.0421C15.1787 21.1097 15.2996 21.177 15.4315 21.2131C15.7019 21.2863 15.9513 21.2413 16.1224 21.2356C16.2173 21.2116 16.1285 21.2241 16.2452 21.1935C16.5793 21.1541 16.7993 21.1023 17.1102 21.053C17.1962 21.01 17.2023 20.998 17.0732 20.9939C17.1524 20.9807 17.2303 20.9711 17.3057 20.9662C17.2099 21.0151 17.3319 21.0108 17.4107 21.0285C17.5011 21.0483 17.5861 21.0799 17.4887 21.1009C17.5419 21.1216 17.6545 21.1417 17.7468 21.1684C17.7625 21.1564 17.7911 21.1334 17.9024 21.1983C18.0293 21.3178 18.0011 21.2872 18.081 21.4108C18.0815 21.4498 18.0394 21.4111 18.0264 21.4255C18.1099 21.5043 18.1243 21.5598 18.1331 21.6086C18.1422 21.6584 18.1456 21.7065 18.1962 21.8163C18.2646 21.9499 18.3687 22.2601 18.4162 22.2629C18.4876 22.4809 18.4572 22.4898 18.4129 22.472Z" fill="#828282" fill-opacity="0.5"/>
<path d="M20.6969 25.2797L20.6784 25.3241L20.6891 25.2802C20.696 25.2696 20.6809 25.2701 20.674 25.2732L20.6502 25.2801L20.5591 25.3097C20.4982 25.3288 20.4327 25.3471 20.3565 25.3668C20.4527 25.3746 20.4859 25.4022 20.4886 25.4311C20.4898 25.4384 20.4892 25.445 20.4893 25.4525C20.4836 25.4674 20.4676 25.4857 20.4605 25.4973C20.4429 25.5221 20.4341 25.5351 20.4342 25.5448C20.4337 25.5583 20.4496 25.5653 20.4726 25.5929C20.4831 25.6087 20.4941 25.6316 20.5067 25.6614C20.5296 25.6723 20.5042 25.7813 20.5054 25.8519C20.3122 25.8474 19.8048 26.5787 19.8314 26.6122C19.7685 26.785 19.6974 26.9573 19.6189 27.128C19.6751 27.0118 19.7278 26.8941 19.7782 26.7769C19.728 26.8943 19.6751 27.0118 19.6189 27.128C19.495 27.3977 19.3544 27.6681 19.1944 27.9237C19.0266 28.1984 18.8573 28.4759 18.6849 28.7581C18.3433 29.3174 17.9962 29.8884 17.6218 30.4446C17.6009 30.476 17.5785 30.5098 17.5541 30.5463C17.542 30.5643 17.5294 30.5832 17.5165 30.6026L17.5054 30.6155C17.493 30.629 17.479 30.6442 17.4643 30.6605C17.4363 30.6898 17.4085 30.7168 17.3842 30.7352C17.3547 30.6601 17.3405 30.593 17.3385 30.5547C17.2119 30.2002 17.1076 29.8561 17.0506 29.6351C17.0216 29.5255 16.9928 29.417 16.964 29.3071C17.0066 29.4907 17.0066 29.4907 17.0492 29.674C16.9515 29.4498 16.8612 29.2347 16.7795 29.0249C16.7398 28.9196 16.7004 28.8162 16.662 28.7145C16.6438 28.6632 16.6258 28.6124 16.6078 28.5618C16.5815 28.474 16.5553 28.3868 16.5294 28.3C16.5325 28.4069 16.5338 28.4612 16.5396 28.6718L16.5207 28.5673L16.4861 28.4C16.4026 28.2281 16.3173 27.9404 16.2426 27.6702C15.9871 27.7072 15.7439 27.7448 15.5843 27.7755C15.6259 27.7536 15.5758 27.7497 15.479 27.755C15.4285 27.7589 15.3699 27.7635 15.3071 27.7686C15.2533 27.7736 15.1964 27.7791 15.1413 27.7844C15.1677 27.7886 15.1839 27.7939 15.2186 27.7971C14.5748 27.8616 13.86 27.9761 13.2939 28.0408C13.2747 28.0433 13.2551 28.0449 13.239 28.0455C13.2304 28.0452 13.2228 28.0441 13.2155 28.0427C13.2012 28.04 13.1899 28.0353 13.1818 28.0305L12.9245 28.0878C12.9743 28.0369 12.7827 28.0657 12.9156 28.0214C12.8637 28.041 12.812 28.0551 12.7624 28.0665L12.7439 28.0705C12.7398 28.0704 12.7437 28.0645 12.7433 28.0618L12.748 28.04L12.7597 27.9937C12.7783 27.9298 12.7955 27.8694 12.7944 27.799L12.8396 27.7006L12.916 27.5467C12.9855 27.4155 13.0555 27.2834 13.1259 27.1506C13.2704 26.886 13.4253 26.6215 13.5822 26.3559C13.9038 25.8281 14.2291 25.2948 14.5532 24.7636L14.5189 24.7791C14.7399 24.4053 14.8715 24.0402 15.2017 23.6204C15.3541 23.2746 15.6379 22.8205 15.6424 22.6454C15.9051 22.2901 15.9726 22.1224 16.2708 21.7874C16.1418 21.8332 16.5463 21.4493 16.3508 21.5732C16.0658 21.7361 16.1072 21.7882 15.8815 21.9395L15.901 21.944C15.4648 22.3614 15.1021 22.8189 14.7576 23.2733C14.4182 23.7288 14.0791 24.1839 13.7381 24.6413C13.3395 25.2883 12.8333 25.9575 12.4382 26.6576C12.3326 26.846 12.2299 27.0418 12.1333 27.2414L12.0365 27.4414C11.9964 27.5256 11.9626 27.6094 11.9279 27.6927C11.8597 27.8589 11.7855 28.0244 11.7333 28.1819C11.6773 28.3398 11.622 28.4967 11.5673 28.6513C11.5407 28.7285 11.5145 28.8049 11.4882 28.8808C11.486 28.8966 11.4658 28.9251 11.4784 28.9306L11.551 28.9225L11.6947 28.9062C12.0768 28.8616 12.4263 28.8255 12.7754 28.769C12.9392 28.7423 13.0738 28.7323 13.2089 28.7266C13.2757 28.7246 13.3437 28.7223 13.4126 28.72L13.5474 28.722C13.9178 28.6669 14.3398 28.6139 14.774 28.5592C14.9859 28.5322 15.2007 28.5045 15.4145 28.4773C15.487 28.4651 15.5592 28.453 15.6297 28.4413L15.6384 28.4665C15.6379 28.4609 15.6372 28.4555 15.6368 28.452C15.6468 28.4852 15.6532 28.5205 15.6577 28.5533L15.663 28.6013L15.6648 28.6241C15.6651 28.631 15.6649 28.635 15.6709 28.6637C15.7063 28.8426 15.7447 29.0204 15.8073 29.2192C15.8211 29.2156 15.8404 29.2771 15.8572 29.306C15.8335 29.3448 16.0429 29.9276 16.3044 30.5099C16.3872 30.6904 16.4707 30.8717 16.5495 31.0432C16.646 31.2497 16.742 31.4345 16.8243 31.5883C16.9904 31.8951 17.1063 32.1069 17.1288 32.1721C17.1591 32.2249 17.1902 32.2795 17.2218 32.3343C17.2421 32.3709 17.2616 32.4263 17.2829 32.4486C17.6288 32.0043 17.9951 31.5795 18.3695 31.0385C18.6085 30.7165 18.8231 30.4002 18.9873 30.1008C19.0335 29.9525 19.0924 29.7902 19.1227 29.662C19.2124 29.5677 19.1707 29.5203 19.2538 29.3948C19.573 29.1293 19.6353 28.9154 19.4892 29.0596C19.6331 28.7828 19.8101 28.5275 19.9595 28.2961C20.0272 28.18 20.0887 28.0634 20.149 27.9454C20.1993 27.8447 20.2505 27.801 20.3104 27.7682C20.4434 27.5138 20.4304 27.6023 20.5985 27.3501C20.6831 27.3104 20.9079 26.6632 20.9617 26.5955L20.9441 26.6415C21.0327 26.4915 21.1272 26.3766 21.2186 26.2599C21.2643 26.2018 21.3098 26.1435 21.3542 26.0813C21.4122 25.9891 21.4815 25.8658 21.5446 25.743C21.6331 25.586 21.7006 25.4196 21.7795 25.2542C21.8542 25.089 21.8931 24.9389 21.9494 24.7792L21.9555 24.6217C21.9554 24.5711 21.9661 24.5097 21.9467 24.4788C21.9219 24.402 21.8953 24.3268 21.8545 24.27C21.8411 24.2541 21.8458 24.2399 21.8165 24.2225C21.7967 24.2119 21.7817 24.2068 21.7654 24.201C21.7335 24.1902 21.7007 24.1818 21.664 24.175C21.6275 24.1681 21.5863 24.1643 21.5408 24.1617C21.4965 24.1578 21.4528 24.1505 21.3975 24.152C21.2908 24.1532 21.1551 24.1691 20.9934 24.2292C20.8328 24.2872 20.666 24.358 20.5047 24.4218C20.3425 24.4866 20.1831 24.5485 20.0252 24.6057C19.95 24.6321 19.875 24.6584 19.8009 24.6844L19.6685 24.7271C19.6757 24.7492 19.7229 24.731 19.7736 24.7129C19.7924 24.7064 19.8389 24.6901 19.8728 24.6826C19.906 24.6754 19.9347 24.6737 19.9455 24.686L19.8002 24.7346L19.7008 24.7647L19.5005 24.8193C19.3665 24.8533 19.2318 24.8821 19.0986 24.905C18.8381 24.9511 18.5578 24.9734 18.3922 24.9494C18.3307 24.9307 18.3297 24.9052 18.3281 24.8902C18.3262 24.8878 18.3258 24.8867 18.3255 24.8855C18.2695 24.8384 18.272 24.8778 18.2169 24.8348L18.2384 24.8C18.1244 24.7463 18.1457 24.656 18.0513 24.5578C18.0307 24.5609 18.0001 24.5171 17.9721 24.4751C18.0134 24.457 17.884 24.3393 17.9289 24.3302L17.925 24.3299C17.91 24.3014 17.8961 24.2823 17.8845 24.2453C17.8627 24.2204 17.7527 24.0866 17.6512 23.9352C17.549 23.7856 17.4527 23.6264 17.432 23.5952L17.4295 23.5636C17.397 23.4743 17.35 23.4399 17.3582 23.4945L17.3247 23.3819L17.3322 23.3945L17.2998 23.2819C17.2978 23.2606 17.3129 23.2345 17.3438 23.2635C17.3071 23.2024 17.2778 23.1309 17.2675 23.0659C17.2864 23.2405 17.3102 23.4611 17.3322 23.6644C17.2891 23.5918 17.2688 23.4508 17.2376 23.3688C17.2381 23.2654 17.2047 23.0582 17.183 22.8947C17.1706 22.8595 17.1099 22.841 17.112 22.7576C17.1386 22.7144 17.0863 22.6663 17.0952 22.5957C17.1357 22.6717 17.1469 22.7481 17.166 22.8264C17.2061 22.8088 17.1447 22.633 17.1407 22.5691C17.119 22.5412 17.0929 22.3863 17.0531 22.2878C17.1069 22.3264 17.0582 22.2055 17.0615 22.1399C17.0454 22.0686 17.0117 22.022 17.0073 22.0546C16.9586 22.0429 17.0632 22.3356 16.9871 22.2454C17.0026 22.2186 16.9561 22.0857 16.9252 22.0049C16.9004 22.0081 16.9263 22.0632 16.8842 22.0148C16.85 21.9221 16.8147 21.8447 16.6994 21.6847C16.7117 21.6911 16.7453 21.7292 16.7693 21.7626C16.799 21.8042 16.7983 21.8131 16.8122 21.8371C16.7863 21.7903 16.8262 21.835 16.8673 21.8927C16.9109 21.9534 16.9554 22.0251 16.9978 22.0956C17.0806 22.2338 17.1505 22.3583 17.1255 22.2934C17.1182 22.3108 17.0451 22.1735 16.9582 22.0213C16.9112 21.9425 16.8691 21.8646 16.7889 21.7621C16.7623 21.7295 16.7339 21.6999 16.7126 21.681C16.6991 21.6725 16.6877 21.6654 16.6791 21.6599C16.6637 21.6508 16.6636 21.6527 16.6693 21.6587C16.742 21.7347 16.5796 21.6354 16.6559 21.71C16.6749 21.7193 16.7111 21.7572 16.7354 21.7827L16.7882 21.8429C16.8438 21.9764 16.8018 22.0086 16.776 21.9812C16.7426 21.8936 16.8387 22.013 16.9092 22.1176C16.9823 22.2243 17.0469 22.3296 17.0169 22.268L17.0196 22.3207C16.9885 22.2688 16.9345 22.1281 16.9389 22.0625C16.914 22.0652 16.8825 21.9917 16.8406 21.9158L16.8327 21.8874C16.8066 21.847 16.7766 21.7844 16.7065 21.711C16.66 21.6696 16.6479 21.6723 16.66 21.6996C16.6899 21.7223 16.7495 21.8048 16.7531 21.8198C16.7655 21.8449 16.7736 21.8654 16.778 21.8811C16.7834 21.9078 16.777 21.9183 16.7661 21.9215C16.7441 21.9277 16.6984 21.8978 16.6435 21.8646C16.6216 21.853 16.5797 21.8241 16.5531 21.8147C16.5239 21.8004 16.5073 21.8098 16.4959 21.8137C16.4693 21.8185 16.5113 21.8738 16.5441 21.9639C16.5313 21.8791 16.5471 21.8835 16.586 21.9406C16.6192 21.9935 16.652 22.0824 16.6789 22.1585C16.6649 22.1758 16.6587 22.2468 16.6741 22.3562C16.7037 22.449 16.7089 22.409 16.7278 22.4255C16.7295 22.4786 16.7454 22.5781 16.7132 22.5682C16.7668 22.6372 16.722 22.6863 16.757 22.7719C16.7933 22.8468 16.7706 22.7652 16.8015 22.8178C16.8287 22.9325 16.8667 23.0923 16.8886 23.1852C16.8718 23.2235 16.8563 23.337 16.7917 23.264C16.7463 23.0891 16.8789 23.3217 16.817 23.1422C16.778 23.2273 16.7543 22.9841 16.6993 22.9559C16.6873 23.0168 16.7198 23.1343 16.7567 23.2314L16.7589 23.2109C16.7913 23.2965 16.858 23.4667 16.8562 23.5649C16.8277 23.5461 16.8249 23.5894 16.7993 23.5265L16.835 23.6463C16.8471 23.6604 16.8592 23.6748 16.8522 23.6398C16.8875 23.6933 16.8979 23.7507 16.9017 23.7959C16.8928 23.8043 16.973 23.9588 17.0628 24.1053C17.1507 24.2524 17.2496 24.3895 17.2385 24.382C17.28 24.4644 17.2622 24.4938 17.327 24.5667C17.3381 24.5682 17.2077 24.3802 17.1051 24.1958C17.0006 24.0124 16.9138 23.8372 16.9383 23.8932C16.9405 23.9317 17.0596 24.1701 17.204 24.396C17.3444 24.6241 17.5206 24.8298 17.5245 24.8609C17.5681 24.9181 17.6321 24.9807 17.6389 24.957C17.7114 25.054 17.5791 24.9504 17.621 25.0271C17.6251 25.0267 17.6252 25.016 17.6434 25.0377L17.6845 25.1145C17.7924 25.1896 17.9166 25.301 18.0733 25.3718C18.1663 25.4138 18.2677 25.4333 18.3484 25.4287C18.287 25.4392 18.2036 25.4698 18.046 25.4231L18.0385 25.4205L18.0193 25.3986C17.9959 25.3944 17.8814 25.3396 17.8737 25.3546C17.921 25.3943 17.976 25.4212 18.0311 25.4507C18.1102 25.4872 18.202 25.5075 18.293 25.5122C18.3211 25.5218 18.3519 25.5323 18.377 25.5407C18.3764 25.5381 18.3742 25.5356 18.3747 25.5325C18.4253 25.5511 18.4199 25.5512 18.4013 25.5581C18.399 25.5593 18.3958 25.5607 18.3903 25.5616C18.4374 25.597 18.5874 25.5972 18.7378 25.5726C18.8897 25.549 19.0463 25.5065 19.1661 25.4987C19.2299 25.4768 19.1688 25.4879 19.2469 25.4593C19.485 25.4311 19.6472 25.4051 19.8823 25.3471C19.9416 25.2998 19.9418 25.2888 19.841 25.2912L20.0148 25.2439C19.9559 25.3012 20.0436 25.2906 20.1295 25.2794C20.199 25.2736 20.2376 25.278 20.2084 25.3264C20.2427 25.3318 20.2843 25.3206 20.3284 25.292C20.3319 25.2712 20.3388 25.238 20.4043 25.213C20.485 25.2076 20.4678 25.2048 20.5221 25.2079C20.5219 25.2329 20.4936 25.254 20.4853 25.2772C20.5941 25.202 20.5159 25.3192 20.5787 25.289C20.6263 25.2621 20.711 25.226 20.7921 25.1514C20.8075 25.1479 20.8199 25.1436 20.8193 25.1579C20.8102 25.173 20.7988 25.1871 20.7864 25.2008C20.7603 25.2278 20.7294 25.2531 20.6969 25.2797Z" fill="#828282" fill-opacity="0.5"/>
<path d="M35.1089 18.2988L35.093 18.2632C35.112 18.2931 35.1292 18.3224 35.1454 18.3532C35.183 18.4248 35.221 18.497 35.2592 18.5695C35.3706 18.7875 35.4743 19.0148 35.5576 19.2521C35.4884 18.9548 35.3684 18.6398 35.2475 18.3677C35.249 18.3137 35.2638 18.3055 35.2441 18.2785C35.2289 18.2575 35.1918 18.2239 35.1087 18.1351C35.0853 18.1094 35.0614 18.0836 35.0373 18.0574C34.9966 18.0261 34.9875 18.0047 34.9736 17.9872C34.9451 17.948 34.9159 17.9046 34.889 17.8572C35.0665 18.0287 35.2267 18.1696 35.2814 18.2321C35.3414 18.2971 35.3402 18.3057 35.3435 18.2868C35.3506 18.2753 35.3653 18.2687 35.3856 18.2668C35.3844 18.2645 35.3943 18.2677 35.4111 18.2747L35.4523 18.291L35.535 18.3237L35.7009 18.3902L35.4743 18.2963L35.4178 18.273L35.3915 18.2626L35.3859 18.2625C35.379 18.2625 35.3727 18.263 35.3671 18.2641C35.3727 18.263 35.3792 18.2624 35.3859 18.2625L35.3915 18.2626L35.4178 18.273L35.4743 18.2963L35.7009 18.3902C35.8802 18.4638 36.0588 18.5373 36.2377 18.6108C36.4136 18.682 36.5823 18.7536 36.7563 18.8326C37.1019 18.989 37.4506 19.163 37.806 19.3442C38.1613 19.5255 38.5246 19.7136 38.9015 19.8979C39.0907 19.9895 39.2814 20.0811 39.4798 20.169C39.6769 20.2569 39.8415 20.3315 40.0219 20.4227C40.1455 20.4829 40.302 20.5637 40.482 20.6582C40.5271 20.6822 40.5734 20.707 40.6212 20.7323L40.689 20.7691L40.7007 20.7772C40.7159 20.7878 40.7319 20.7989 40.7485 20.8103C40.8051 20.8527 40.8586 20.8889 40.8491 20.8985C40.7326 20.8884 40.6711 20.8801 40.648 20.8659C40.6444 20.8635 40.6371 20.8616 40.6334 20.8595L40.6276 20.8564C40.6191 20.8562 40.6434 20.8519 40.5931 20.8571C40.6326 20.854 40.6253 20.8565 40.627 20.8577L40.6308 20.8608L40.6383 20.8655C40.6439 20.8684 40.6498 20.8711 40.6611 20.8769C40.6658 20.8864 40.6535 20.898 40.6402 20.9092C40.5077 20.9357 40.3779 20.9615 40.2504 20.9869C39.994 21.0429 39.7474 21.0968 39.5067 21.1495C39.6008 21.1564 39.6226 21.1721 39.8383 21.1698L39.5831 21.1965C39.3758 21.2929 38.8575 21.3909 38.627 21.4698C38.6662 21.4276 38.4722 21.4602 38.3034 21.4952L38.3785 21.5008C38.2049 21.5372 38.098 21.5601 37.805 21.6349C37.6806 21.6684 37.5552 21.7021 37.43 21.7356L37.3367 21.7612L37.29 21.774C37.276 21.779 37.2517 21.7784 37.2633 21.7976L37.3046 21.971C37.3315 22.0863 37.3594 22.2002 37.3898 22.3118C37.419 22.4233 37.4497 22.5444 37.4696 22.6015C37.515 22.7456 37.5586 22.8838 37.599 23.0126C37.6235 23.0836 37.628 23.139 37.6266 23.1732C37.6923 23.3347 37.7615 23.4945 37.8322 23.6532C37.7684 23.6259 37.9444 24.0596 37.8244 23.8365C37.9228 24.0108 38.0007 24.1888 38.0774 24.3643C38.1233 24.4705 38.1332 24.4875 38.1624 24.5439C38.189 24.5943 38.2107 24.6251 38.2466 24.6751C38.2795 24.7565 38.3125 24.8386 38.3456 24.9212L38.396 25.0511L38.4211 25.1182L38.434 25.1524C38.4444 25.1705 38.4325 25.164 38.4206 25.157C38.302 25.0985 38.1824 25.0395 38.0621 24.9804C37.915 24.9109 37.767 24.8409 37.6187 24.7708C37.1143 24.5255 36.6052 24.2868 36.0979 24.0576L36.1226 24.0883C35.6337 23.8707 35.1718 23.7312 34.61 23.4151C34.1686 23.2557 33.5678 22.9847 33.3572 22.9776C32.8765 22.7459 32.6634 22.6878 32.1871 22.4666C32.2826 22.5666 31.7079 22.2775 31.9171 22.4255C32.1919 22.6382 32.2371 22.6028 32.4723 22.7804L32.4725 22.7637C33.6594 23.4504 34.8693 24.0978 36.0913 24.7474C36.3017 24.8452 36.5146 24.9482 36.7277 25.056C36.8341 25.1104 36.941 25.1651 37.0485 25.2198L37.3901 25.3989C38.1578 25.8122 38.9319 26.2288 39.6912 26.6378C39.7314 26.6592 39.7718 26.6807 39.8137 26.7029C39.5754 25.9905 39.315 25.2446 39.0152 24.543C38.8207 24.1001 38.6328 23.6724 38.4652 23.2912C38.3874 23.1214 38.3869 22.9902 38.3626 22.8409C38.3338 22.7591 38.3023 22.6741 38.2761 22.5871C38.2569 22.5253 38.2372 22.4618 38.2172 22.3972C38.2092 22.367 38.2009 22.3363 38.1925 22.3051C38.1918 22.2979 38.1857 22.2879 38.1897 22.2831L38.2148 22.2761L38.2658 22.2621L38.4181 22.2228L38.7452 22.1445C38.9635 22.0951 39.1801 22.0461 39.3907 21.9985C39.3747 22.001 39.3588 22.0031 39.3484 22.0048C39.7986 21.9116 40.156 21.9009 40.6014 21.8343C40.5955 21.8219 40.6647 21.8126 40.6967 21.8017C40.7046 21.8057 40.729 21.806 40.7671 21.8033C40.811 21.7987 40.87 21.7922 40.943 21.7847C41.1617 21.7619 41.4525 21.7236 41.8006 21.6978C42.4966 21.6476 43.4303 21.6133 44.024 21.5858C44.012 21.5783 44.0041 21.5717 43.9893 21.5632L43.9214 21.5333C43.8769 21.5137 43.8328 21.4944 43.7898 21.4753C43.7037 21.4372 43.621 21.4006 43.5419 21.3654C43.3854 21.2948 43.2437 21.2308 43.1219 21.1758C42.8826 21.0663 42.7322 20.9937 42.704 20.9739C42.625 20.9381 42.5439 20.9013 42.4619 20.864C42.1086 20.6866 41.7895 20.5057 41.4543 20.3125C41.1892 20.1603 40.9236 20.0076 40.6631 19.8579C40.4397 19.7327 40.2114 19.615 39.9844 19.5119C39.7725 19.4171 39.5706 19.3265 39.3779 19.2404C39.1979 19.1904 38.9981 19.1229 38.8413 19.0826C38.7178 18.9947 38.6668 19.0249 38.5057 18.9377C38.1494 18.6296 37.8779 18.5467 38.0725 18.6919C37.7195 18.5323 37.3762 18.3472 37.06 18.1987C36.91 18.1355 36.7595 18.0744 36.6056 18.0142C36.4816 17.9676 36.4228 17.9193 36.3761 17.866C36.0586 17.7293 36.1643 17.7488 35.8454 17.5762C35.8468 17.5652 35.7342 17.5076 35.5991 17.4441C35.462 17.3795 35.2915 17.3035 35.1274 17.2318C34.7953 17.0858 34.5044 16.9698 34.4319 16.9308L34.5056 16.9586C34.2213 16.8227 33.9967 16.7292 33.8465 16.6989C33.767 16.6806 33.7063 16.6752 33.6478 16.6737C33.619 16.6734 33.5924 16.6742 33.5651 16.6766C33.5512 16.6782 33.5385 16.6788 33.5214 16.6843C33.5086 16.695 33.5281 16.6922 33.5316 16.6957C33.4979 16.7583 33.4358 16.7968 33.3979 16.8712C33.3446 16.9326 33.386 17.0875 33.5423 17.3052C33.6552 17.5659 33.8505 17.8833 34.0345 18.1885C34.1258 18.342 34.2169 18.4954 34.3077 18.6481C34.357 18.7365 34.4061 18.8244 34.4547 18.9118C34.6302 19.2411 34.7709 19.5673 34.8075 19.8312C34.8608 19.837 34.7649 19.6749 34.8248 19.6577C34.8864 19.8821 34.87 20.0932 34.7912 20.1952C34.7522 20.2473 34.7038 20.2808 34.6373 20.3135C34.5684 20.3446 34.4726 20.3681 34.3654 20.3875C34.2804 20.3878 34.1791 20.3797 34.1298 20.3655C33.9626 20.3568 34.0306 20.3896 33.8993 20.3876L33.8748 20.3481C33.6752 20.382 33.5665 20.3041 33.3639 20.3204C33.3556 20.3361 33.2806 20.3385 33.2059 20.3377C33.1973 20.2949 32.9766 20.343 32.9808 20.305L32.9792 20.3083C32.9334 20.3088 32.9021 20.3113 32.8439 20.3062C32.8011 20.3153 32.5784 20.3538 32.3513 20.4105C32.1255 20.4625 31.8968 20.5467 31.8546 20.567L31.8081 20.5701C31.6776 20.6061 31.6386 20.6556 31.7177 20.639C31.6635 20.6573 31.6169 20.662 31.5437 20.6964L31.5649 20.6832L31.3641 20.772C31.3234 20.7841 31.2702 20.7949 31.3085 20.7487C31.2214 20.83 31.1048 20.9016 31.0282 20.9843C31.0836 20.9275 31.1645 20.8829 31.2462 20.8382C31.3213 20.7879 31.4214 20.7595 31.5136 20.7271C31.6129 20.6876 31.6859 20.6836 31.7575 20.671C31.8305 20.6574 31.9001 20.657 31.967 20.6525C31.9182 20.6721 31.8462 20.6811 31.7713 20.7025C31.6994 20.7208 31.6171 20.7381 31.5466 20.7772C31.3565 20.8074 31.0151 21.0012 30.8957 21.2325C30.8845 21.2881 30.9141 21.3303 30.8922 21.4531C30.8631 21.5135 30.9093 21.5975 30.9407 21.698C30.859 21.5862 30.8367 21.4565 30.8635 21.335C30.8427 21.3418 30.8152 21.4172 30.8306 21.5066C30.8347 21.551 30.8506 21.5965 30.8619 21.6379C30.8807 21.6777 30.8959 21.7136 30.9057 21.7382C30.93 21.7583 30.9654 21.8283 31.037 21.9041C31.102 21.9813 31.1985 22.0655 31.2797 22.1241C31.2305 22.1075 31.2558 22.1363 31.3047 22.1811C31.3276 22.2013 31.3541 22.2245 31.381 22.248C31.3968 22.263 31.4084 22.2762 31.4149 22.2881C31.4632 22.3324 31.4916 22.3404 31.4888 22.3192C31.5136 22.3131 31.4755 22.2724 31.4338 22.231C31.418 22.2147 31.3761 22.1779 31.3589 22.1577C31.3421 22.1381 31.3475 22.1335 31.3905 22.154C31.3938 22.1628 31.4167 22.185 31.4305 22.1983C31.444 22.2104 31.4594 22.2244 31.4762 22.2393C31.5067 22.2642 31.5409 22.2922 31.5648 22.312C31.5837 22.2992 31.5482 22.2748 31.5944 22.2875C31.6313 22.3303 31.6809 22.3506 31.6566 22.3617C31.6462 22.3608 31.6555 22.358 31.6454 22.3476C31.6536 22.3624 31.6049 22.3461 31.4823 22.2878C31.4503 22.2727 31.4185 22.2579 31.3896 22.2444C31.3564 22.2279 31.2925 22.1875 31.259 22.1667C31.1832 22.1192 31.1502 22.1006 31.207 22.1429C31.1977 22.128 31.2583 22.167 31.3521 22.2232C31.3993 22.2516 31.417 22.2565 31.4497 22.2739C31.4771 22.2878 31.5063 22.3026 31.5351 22.3172C31.6427 22.3773 31.6529 22.3653 31.6591 22.3651C31.6597 22.3495 31.7109 22.3666 31.7063 22.3479C31.6905 22.3438 31.686 22.3443 31.6665 22.3381C31.6543 22.3041 31.6504 22.2518 31.6852 22.2629C31.7205 22.3033 31.6421 22.2706 31.5376 22.2287C31.4607 22.2098 31.222 22.0605 31.3362 22.1374L31.2691 22.0688C31.2921 22.083 31.323 22.1038 31.3571 22.128C31.3878 22.1499 31.4209 22.1731 31.4535 22.1964C31.4943 22.2269 31.5316 22.2599 31.537 22.2815C31.5561 22.2682 31.6061 22.3037 31.6374 22.3256L31.6395 22.3352C31.6734 22.3571 31.666 22.3651 31.6956 22.3518C31.6594 22.3009 31.7066 22.2738 31.7962 22.2886C31.8649 22.2925 31.9767 22.3363 31.886 22.1963C31.9201 22.3256 31.8286 22.1851 31.6887 22.0843C31.6891 22.0628 31.6518 22.0024 31.544 21.9013C31.444 21.8245 31.4706 21.8627 31.4399 21.853C31.3936 21.8021 31.3176 21.7055 31.3586 21.7115C31.2644 21.6489 31.2872 21.596 31.2519 21.5036C31.223 21.4177 31.233 21.5086 31.2153 21.4464C31.2173 21.3805 31.2563 21.3103 31.306 21.2535C31.3586 21.1985 31.4195 21.1522 31.4651 21.1222C31.528 21.1125 31.6628 21.0851 31.6254 21.1555C31.4649 21.2459 31.6246 21.0715 31.4712 21.1873C31.5918 21.1658 31.3547 21.3042 31.4011 21.3534C31.4655 21.3169 31.5397 21.2428 31.6158 21.1892L31.5917 21.1939C31.655 21.1423 31.8076 21.0562 31.9277 21.0592C31.9142 21.084 31.9633 21.0845 31.9003 21.1087L32.0249 21.0754C32.0386 21.0661 32.0528 21.0566 32.0135 21.0606C32.0684 21.0332 32.1339 21.0275 32.1845 21.0281C32.1957 21.0376 32.3633 20.9852 32.5386 20.9478C32.7131 20.9103 32.889 20.8812 32.8787 20.8883C32.981 20.8833 33.0106 20.9134 33.1073 20.8912C33.1115 20.8832 32.8674 20.9021 32.6466 20.9375C32.4242 20.9699 32.2313 21.0234 32.2942 21.0106C32.3367 21.0115 32.6069 20.9547 32.8893 20.922C33.1705 20.8884 33.4555 20.8702 33.4898 20.8888C33.5661 20.8875 33.6578 20.8834 33.6374 20.8632C33.768 20.8732 33.6035 20.9017 33.6979 20.9207C33.6996 20.9176 33.6891 20.9105 33.7185 20.9113L33.8105 20.9371C34.0049 20.9064 34.3154 20.9451 34.5144 20.8674C34.4614 20.8946 34.4021 20.9477 34.2651 20.9758L34.2384 20.9665C34.2194 20.9744 34.106 20.9853 34.1132 21.0048C34.2468 21.0159 34.3657 21.0044 34.5016 20.9644C34.5297 20.9668 34.5624 20.9681 34.5844 20.9681C34.5827 20.9657 34.5799 20.964 34.5792 20.9609C34.63 20.9633 34.6261 20.9662 34.612 20.9775C34.6104 20.9795 34.6081 20.9817 34.6039 20.984C34.6573 21.0043 34.7919 20.9684 34.9333 20.8993C35.0742 20.8251 35.2084 20.7152 35.3025 20.6302C35.3415 20.5704 35.2988 20.619 35.3391 20.5412C35.4955 20.3503 35.5432 20.176 35.5424 19.9364C35.5037 19.8584 35.4914 19.8546 35.4705 19.9434C35.4656 19.8853 35.4668 19.8255 35.456 19.768C35.5113 19.8459 35.5139 19.7644 35.5158 19.6814C35.5157 19.5997 35.5099 19.5191 35.574 19.604C35.5789 19.5494 35.5502 19.4417 35.5025 19.3472C35.4804 19.3405 35.4441 19.331 35.3973 19.213C35.3504 19.0455 35.3626 19.0894 35.3227 18.9466C35.3317 18.909 35.3644 18.9551 35.3811 18.9446C35.2515 18.7483 35.3458 18.7512 35.2405 18.5631C35.223 18.5342 35.2012 18.4985 35.1784 18.4608L35.1429 18.4044L35.128 18.3869C35.1068 18.3642 35.0818 18.343 35.0568 18.3419C35.0212 18.2773 35.0624 18.287 35.1089 18.2988Z" fill="#828282" fill-opacity="0.5"/>
<path d="M33.0938 23.4677L33.1255 23.4875C33.0146 23.4386 32.9055 23.3683 32.7997 23.2998C32.9805 23.5338 33.2223 23.7746 33.5438 23.622C33.4946 23.76 33.6993 23.93 33.7212 23.9008C33.7835 23.9005 33.8436 23.9043 33.9019 23.9118C33.8624 23.9048 33.8229 23.8993 33.7819 23.8955C33.8229 23.8993 33.8623 23.9051 33.9019 23.9118C34.2719 23.9603 34.5912 24.1646 34.8905 24.3868C34.98 24.4487 35.1347 24.5553 35.2921 24.664C35.4621 24.7792 35.6216 24.8939 35.7028 24.966C35.7278 24.9865 35.752 25.0066 35.7759 25.0262C35.7379 24.9884 35.7379 24.9884 35.7004 24.9508C35.8386 24.9871 35.9657 25.0175 36.0821 25.0585C36.0772 25.0309 36.0865 25.0126 36.0617 24.9638L36.1049 25.006C36.1889 24.9853 36.296 25.0526 36.3628 25.0629C36.3324 25.082 36.3687 25.1114 36.4013 25.1368L36.4002 25.1115C36.5269 25.2035 36.6994 25.2783 36.8181 25.3549C36.8351 25.3651 36.8403 25.3823 36.8412 25.3958L36.9725 25.4465C36.9372 25.4753 37.0459 25.5352 36.9739 25.5229C37.0924 25.5352 37.1619 25.6137 37.2772 25.6217C37.5796 25.7957 37.9217 25.9592 38.2804 26.0756L38.2814 26.0582C38.4098 26.0953 38.5527 26.0795 38.6745 26.1736C38.8018 26.1773 38.957 26.2213 39.0409 26.1638C39.1585 26.21 39.2266 26.191 39.3469 26.2232C39.3396 26.1714 39.4789 26.2271 39.4407 26.1716C39.3983 26.0838 39.3693 26.1277 39.3327 26.0554L39.3272 26.069C39.0768 25.8765 38.8217 25.6993 38.5545 25.5271C38.3471 25.4544 38.1636 25.3129 37.9644 25.2082C37.7474 25.0983 37.5052 24.986 37.3038 24.9065C37.2533 24.8906 37.2453 24.8425 37.2217 24.8039C37.0449 24.7198 36.844 24.5798 36.6411 24.4859C36.6445 24.4881 36.6474 24.4908 36.6493 24.4928C36.5447 24.4387 36.4979 24.357 36.3946 24.3049C36.3875 24.3153 36.3717 24.307 36.3603 24.3078C36.378 24.2475 35.7056 24.0674 35.6927 24.0234C35.6805 24.0197 35.6683 24.0155 35.6562 24.0102C35.4628 23.8658 35.2915 23.6469 35.0957 23.5599C35.0402 23.5621 34.9812 23.5595 34.9309 23.5696C34.9102 23.5316 34.8791 23.5702 34.8423 23.5449C34.7985 23.3935 34.7135 23.4063 34.7461 23.4682C34.654 23.4413 34.5749 23.3926 34.4981 23.3606C34.4603 23.3526 34.4219 23.3446 34.381 23.3359C34.3467 23.3306 34.3386 23.3077 34.337 23.2764C34.2533 23.2556 34.2897 23.2408 34.2158 23.1932C34.2162 23.1482 33.9869 23.158 33.9705 23.1367L33.9863 23.1374C33.8982 23.0885 33.8767 22.9912 33.7902 22.9468C33.5597 22.8057 33.2816 22.706 33.0727 22.5829C33.0481 22.6184 33.1254 22.5992 33.0983 22.649C32.9728 22.5776 32.874 22.4657 32.7541 22.3917C32.7383 22.37 32.7224 22.3375 32.7204 22.3203C32.6912 22.285 32.6859 22.3243 32.661 22.3035L32.6798 22.2695C32.6202 22.272 32.645 22.2 32.5974 22.1909C32.5859 22.2024 32.5708 22.196 32.5579 22.1873C32.582 22.1536 32.5141 22.1655 32.5391 22.1361L32.5368 22.1384C32.5295 22.1329 32.5223 22.1315 32.517 22.1201C32.4912 22.1207 32.2851 22.1273 32.2544 22.1282L32.2516 22.1185C32.2306 22.1056 32.2018 22.1232 32.209 22.1372L32.1853 22.1182L32.1901 22.1181L32.1665 22.0993C32.1642 22.0933 32.1718 22.0752 32.1912 22.0661C32.1676 22.0674 32.1464 22.0626 32.1371 22.0474C32.1595 22.0932 32.1835 22.155 32.2006 22.2151C32.1724 22.2152 32.1565 22.1762 32.1345 22.1671C32.1301 22.1308 32.1002 22.0823 32.0777 22.0442C32.0683 22.0407 32.0312 22.0715 32.0273 22.0443C32.0407 22.0151 32.0068 22.0315 32.0095 22.0041C32.0365 22.0037 32.0474 22.0205 32.0635 22.0332C32.0863 22.0034 32.0401 21.9863 32.0361 21.9686C32.0219 21.973 32.0006 21.9409 31.9738 21.934C32.0083 21.9143 31.9753 21.9059 31.9782 21.8836C31.9687 21.8711 31.9497 21.8751 31.9455 21.8881C31.9123 21.9127 31.9796 21.9437 31.9314 21.9596C31.9405 21.9424 31.9102 21.9277 31.8951 21.9186C31.8788 21.9336 31.8923 21.9372 31.8683 21.9449C31.8564 21.93 31.8204 21.9354 31.8283 21.9133C31.8357 21.9116 31.8393 21.9188 31.8433 21.9226C31.8263 21.9069 32.054 21.9046 32.0188 21.8937C32.0129 21.9132 31.8131 21.8996 31.8244 21.9096C31.8286 21.9263 31.786 21.9296 31.7934 21.9445L31.8273 21.9372C31.8388 21.9558 31.8181 21.9878 31.8008 21.9934C31.7747 21.9696 31.9921 21.9527 31.9507 21.9487L31.9532 21.9637C31.9327 21.9658 31.8957 21.953 31.9017 21.929C31.886 21.944 31.8664 21.9385 31.8487 21.935L31.8471 21.9292C31.8269 21.9276 31.8134 21.9111 31.8003 21.9365C31.8769 21.9899 31.5881 22.0488 31.6522 22.1127C31.6561 22.0563 31.6988 22.0872 31.7353 22.1078C31.7267 22.1214 31.724 22.1491 31.7392 22.1759C31.7624 22.1889 31.7636 22.1728 31.7761 22.1671C31.7798 22.1833 31.7953 22.2062 31.775 22.2221C31.8121 22.2126 31.787 22.2557 31.8145 22.2623C31.8418 22.2643 31.8223 22.2521 31.8446 22.25C31.869 22.2705 31.9037 22.2991 31.9213 22.3178C31.9139 22.3407 31.912 22.3893 31.8695 22.4039C31.8314 22.3718 31.9244 22.3703 31.8762 22.347C31.8591 22.3994 31.8284 22.3321 31.7934 22.3567C31.791 22.3839 31.8189 22.4032 31.8468 22.4143L31.8468 22.4058C31.8721 22.4146 31.9204 22.4342 31.9244 22.4711C31.9069 22.4817 31.9077 22.4992 31.8895 22.4923L31.9159 22.5145C31.9234 22.5125 31.9311 22.5103 31.9255 22.5015C31.9484 22.4995 31.9573 22.5141 31.9611 22.5293C31.9525 22.5469 32.1692 22.5615 32.1561 22.568C32.1775 22.5805 32.1647 22.6071 32.1971 22.604C32.2098 22.593 31.954 22.5319 31.9853 22.5439C31.9908 22.5733 32.2854 22.615 32.2771 22.6498C32.2938 22.6577 32.3155 22.6655 32.3236 22.6472C32.3448 22.6706 32.2934 22.6734 32.3016 22.6995C32.3039 22.6973 32.3059 22.6906 32.3115 22.6947L32.3153 22.7258C32.3753 22.7246 32.4137 22.7935 32.4816 22.7834C32.4568 22.7942 32.4206 22.8177 32.3807 22.8178L32.3817 22.8063C32.374 22.809 32.3469 22.8012 32.336 22.8178C32.3554 22.8445 32.3812 22.8546 32.4213 22.8539C32.4236 22.8612 32.4268 22.8691 32.4281 22.8758L32.4319 22.8691C32.4344 22.8845 32.4323 22.8856 32.4245 22.8902L32.42 22.8928C32.4052 22.9504 32.549 22.9209 32.5827 22.973C32.602 22.974 32.5895 22.9655 32.614 22.9659C32.6533 23.0127 32.6799 23.0454 32.7274 23.0848C32.758 23.0724 32.7646 23.0648 32.7572 23.0318L32.794 23.0598C32.7219 23.0971 32.8381 23.1531 32.7621 23.1885C32.7664 23.2079 32.7896 23.2232 32.8185 23.2258C32.8295 23.2128 32.8467 23.1915 32.8761 23.2061C32.9054 23.2451 32.9 23.2335 32.9228 23.2683C32.9198 23.2908 32.903 23.2921 32.8957 23.3078C32.9622 23.3095 32.9174 23.3708 32.9691 23.3916C33.0032 23.4014 33.0656 23.4292 33.0859 23.3966C33.1271 23.4187 33.1132 23.4429 33.0938 23.4677Z" fill="#828282" fill-opacity="0.5"/>
<path d="M12.9238 27.6449L12.9532 27.6183C12.875 27.7158 12.7771 27.8064 12.68 27.8947C12.9883 27.7668 13.3238 27.5918 13.1872 27.2342C13.2704 27.2722 13.3731 27.2514 13.4557 27.2078C13.5411 27.1604 13.6003 27.099 13.5781 27.0877C13.5794 27.0227 13.5861 26.9601 13.5975 26.8994C13.6689 26.5163 13.9303 26.2063 14.2085 25.8852C14.3593 25.7055 14.7207 25.1902 14.8909 25.0118C14.9147 24.9847 14.9377 24.9582 14.9606 24.9319C14.916 24.9738 14.916 24.9738 14.8717 25.0152C14.9038 24.8708 14.9297 24.7387 14.9677 24.6175C14.9328 24.6251 14.9084 24.6171 14.8489 24.6463L14.8979 24.5992C14.861 24.5162 14.9344 24.4029 14.9388 24.335C14.9671 24.3639 15.0002 24.3247 15.0286 24.2895L14.996 24.2932C15.0462 24.2251 15.0925 24.1478 15.1298 24.0683C15.1651 23.9944 15.2012 23.9202 15.241 23.8605C15.2514 23.8434 15.272 23.8372 15.289 23.8358L15.3357 23.7054C15.3763 23.7385 15.4387 23.6313 15.4318 23.7016C15.4333 23.586 15.5254 23.5181 15.5262 23.406C15.7247 23.1155 15.9214 22.8015 16.1308 22.5094L16.1094 22.5029C16.179 22.3999 16.2016 22.2543 16.369 22.2038C16.4289 22.0942 16.5893 22.0234 16.6479 21.9343C16.837 21.9284 16.96 21.9204 17.1491 22.0257C17.1447 21.9924 17.1944 22.0141 17.2405 22.0361C17.291 22.0616 17.3082 22.0654 17.3005 22.0316C17.2334 21.8885 17.1873 21.9214 17.082 21.8041L17.0784 21.8195C16.919 21.7186 16.7013 21.6678 16.5244 21.673C16.3437 21.6757 16.1977 21.715 16.0765 21.7608C15.8288 21.854 15.654 21.9772 15.4929 22.1054C15.3289 22.3149 15.123 22.498 14.977 22.707C14.8238 22.9333 14.6927 23.1901 14.6111 23.4034C14.5961 23.4567 14.5351 23.4689 14.4881 23.4974C14.3997 23.6953 14.2576 23.904 14.1639 24.1078C14.1667 24.1048 14.1695 24.1015 14.1714 24.0991C14.1169 24.2053 14.0201 24.2572 13.9674 24.3608C13.9816 24.3672 13.9731 24.3832 13.9754 24.3942C13.9007 24.3787 13.7494 25.0495 13.6908 25.0667C13.6875 25.0786 13.6836 25.0909 13.6784 25.1026C13.5204 25.2993 13.2635 25.4513 13.1643 25.6374C13.1701 25.6926 13.1691 25.7509 13.1824 25.8025C13.1357 25.8198 13.1846 25.8545 13.1535 25.8891C12.9674 25.9177 12.9853 26.0041 13.0607 25.9781C13.0283 26.068 12.9679 26.1427 12.9284 26.2167C12.9182 26.2544 12.9079 26.2926 12.8971 26.333C12.8902 26.3674 12.8618 26.3729 12.8232 26.3703C12.7964 26.4531 12.7788 26.4142 12.7196 26.4831C12.692 26.4797 12.6803 26.5379 12.6718 26.5977C12.6616 26.6492 12.6538 26.7053 12.6404 26.7103L12.6423 26.696C12.5728 26.7681 12.4469 26.7696 12.3779 26.8447C12.1643 27.0411 11.9863 27.3029 11.8003 27.5068C11.843 27.5369 11.8285 27.4539 11.8892 27.4887C11.78 27.6078 11.6239 27.7029 11.5172 27.8316C11.487 27.8481 11.4431 27.8658 11.4205 27.8685C11.3722 27.9026 11.4239 27.9069 11.3954 27.9357L11.351 27.9167C11.3516 27.9823 11.2559 27.9601 11.2429 28.0168C11.2583 28.0284 11.2492 28.0466 11.2373 28.0624C11.1921 28.0395 11.2074 28.1152 11.1677 28.0913L11.1706 28.0935C11.1632 28.1032 11.1616 28.1118 11.1459 28.1202C11.149 28.1505 11.1635 28.3952 11.1763 28.4281L11.1636 28.4347C11.1503 28.4652 11.1787 28.4925 11.1956 28.479L11.1753 28.514L11.174 28.5085L11.1537 28.5435C11.1463 28.5484 11.1205 28.5471 11.1048 28.5284C11.1107 28.5549 11.1101 28.5846 11.0927 28.6041C11.1454 28.5496 11.2244 28.5019 11.2987 28.4636C11.3029 28.4943 11.2568 28.5264 11.2493 28.5545C11.2019 28.5704 11.1476 28.6296 11.1046 28.6783C11.1026 28.6916 11.1534 28.718 11.1195 28.7374C11.0766 28.7379 11.1097 28.7696 11.0762 28.7875C11.0631 28.7505 11.082 28.7267 11.0942 28.7012C11.0478 28.6899 11.0396 28.7576 11.0221 28.781C11.0332 28.7963 11.0035 28.8527 11.0073 28.8933C10.9682 28.8676 10.971 28.9153 10.9468 28.9413C10.9387 28.9717 10.9547 28.9945 10.9712 28.9843C11.0161 28.9988 11.0128 28.8733 11.0574 28.9236C11.0316 28.9263 11.0351 28.9875 11.0351 29.018C11.0609 29.0219 11.0562 29.0002 11.0798 29.0234C11.0717 29.0562 11.1012 29.0942 11.0734 29.1107C11.0666 29.104 11.0715 29.0906 11.0728 29.081C11.0622 29.1303 10.9246 28.8113 10.9376 28.8726C10.9498 28.8665 10.9748 28.9347 11.0082 29.0064C11.0395 29.0752 11.0714 29.1347 11.0723 29.1202C11.0862 29.0954 11.1188 29.1413 11.1289 29.1159L11.0988 29.0838C11.1104 29.0476 11.1573 29.0398 11.1743 29.0543C11.1632 29.1178 11.0123 28.853 11.0358 28.9091L11.0525 28.8927C11.0625 28.914 11.0706 28.9762 11.0423 28.9965C11.0678 29.0008 11.0745 29.033 11.0825 29.0592L11.0775 29.0676C11.089 29.0952 11.0815 29.1305 11.1163 29.1163C11.1179 29.0413 11.1822 29.0752 11.2488 29.1036C11.3154 29.1325 11.3844 29.1549 11.3953 29.1005C11.3354 29.1428 11.3376 29.0782 11.3352 29.0242C11.3557 29.0226 11.3825 29.0041 11.407 28.9753C11.4097 28.9458 11.3906 28.9534 11.3779 28.9444C11.3944 28.9311 11.4125 28.9035 11.4409 28.9156C11.4123 28.8836 11.4705 28.8863 11.4676 28.858C11.4602 28.8308 11.4521 28.8546 11.4416 28.8335C11.4581 28.8011 11.4808 28.7564 11.4976 28.7325C11.5272 28.7319 11.5883 28.7219 11.619 28.7594C11.5949 28.805 11.5593 28.7146 11.5487 28.7686C11.6178 28.77 11.5481 28.8196 11.5912 28.845C11.6248 28.839 11.6373 28.8081 11.6395 28.7787L11.6294 28.7808C11.6298 28.7544 11.6422 28.7038 11.6854 28.6928C11.7034 28.7074 11.7245 28.7037 11.7215 28.7222L11.7405 28.6933C11.7357 28.6865 11.731 28.6795 11.7221 28.6864C11.713 28.6646 11.7293 28.6539 11.7469 28.6484C11.7684 28.656 11.7492 28.4436 11.7599 28.454C11.7724 28.4315 11.8085 28.4434 11.8002 28.411C11.7801 28.3994 11.7499 28.6565 11.7598 28.6231C11.7906 28.6168 11.7993 28.3227 11.852 28.3308C11.8609 28.3141 11.8689 28.2924 11.8453 28.2844C11.8734 28.2632 11.8805 28.3147 11.9132 28.3068C11.9102 28.3045 11.9014 28.3023 11.9065 28.2968L11.946 28.2937C11.9422 28.2344 12.0266 28.1989 12.0142 28.1315C12.0277 28.157 12.0578 28.1945 12.0589 28.2333L12.0446 28.2318C12.0482 28.2393 12.0397 28.266 12.0613 28.2772C12.0937 28.2595 12.1053 28.2353 12.1039 28.1961C12.1131 28.1944 12.1233 28.192 12.1317 28.1914L12.1232 28.187C12.1427 28.1858 12.1442 28.1881 12.1498 28.1961L12.1533 28.2008C12.2261 28.221 12.1897 28.0784 12.2564 28.0508C12.2584 28.0321 12.247 28.0432 12.2488 28.0194C12.3098 27.9872 12.3536 27.9663 12.406 27.926C12.3925 27.8942 12.3833 27.8866 12.3414 27.8886L12.3796 27.857C12.4208 27.9337 12.5009 27.8301 12.5391 27.9101C12.5633 27.9094 12.5846 27.8897 12.5902 27.8621C12.5748 27.8491 12.5497 27.8282 12.5708 27.8024C12.6226 27.7812 12.6077 27.7845 12.6543 27.7691C12.6824 27.7763 12.682 27.793 12.7008 27.8032C12.7104 27.7392 12.7824 27.7949 12.814 27.7494C12.8296 27.7184 12.8722 27.6633 12.8345 27.6367C12.8671 27.602 12.8953 27.6206 12.9238 27.6449Z" fill="#828282" fill-opacity="0.5"/>
</svg>
