<svg width="24" height="25" viewBox="0 0 24 25" fill="none" xmlns="http://www.w3.org/2000/svg">
<path d="M20 11.7V18.5C20 19 19.5 19.5 19 19.5H17C16.5 19.5 16 19 16 18.5V11.7C16 11.7 16 11.8 16.1 11.8C16.3 12 16.6 12.2 16.9 12.3C17 12.3 17.1 12.4 17.2 12.4C17.3 12.4 17.3 12.4 17.4 12.5C17.6 12.5 17.8 12.6 18 12.6C18.2 12.6 18.4 12.6 18.6 12.5C18.7 12.5 18.8 12.5 18.8 12.4C18.9 12.4 19 12.3 19.1 12.3C19.4 12.2 19.7 12 20 11.7C20 11.8 20 11.8 20 11.7Z" fill="#FFC595"/>
<path d="M21.2001 9.7C20.7001 9.5 20.1001 9.7 19.9001 10.2C19.8001 10.5 19.6001 10.7 19.4001 10.9C19.0001 11.3 18.5001 11.5 18.0001 11.5C17.1001 11.5 16.4001 10.9 16.1001 10.1C16.0001 9.6 15.5001 9.3 15.0001 9.3C14.5001 9.3 14.1001 9.6 13.9001 10.1C13.6001 10.9 12.9001 11.5 12.0001 11.5C11.1001 11.5 10.4001 10.9 10.1001 10.1C9.90006 9.6 9.50006 9.3 9.00006 9.3C8.50006 9.3 8.10006 9.6 7.90006 10.1C7.60006 10.9 6.90006 11.5 6.00006 11.5C5.50006 11.5 5.00006 11.3 4.70006 11C4.40006 10.8 4.30006 10.5 4.20006 10.3C4.00006 10 4.10006 9.7 4.30006 9.4L5.90006 7C6.10006 6.7 6.40006 6.5 6.70006 6.5H14.0001C14.6001 6.5 15.0001 6.1 15.0001 5.5C15.0001 4.9 14.6001 4.5 14.0001 4.5H6.70006C5.70006 4.5 4.80006 5 4.20006 5.8L2.60006 8.3C2.00006 9.1 1.90006 10.2 2.30006 11.1C2.50006 11.5 2.70006 11.9 3.00006 12.2V18.5C3.00006 19.6 3.90006 20.5 5.00006 20.5H19.0001C20.1001 20.5 21.0001 19.6 21.0001 18.5V12.1C21.3001 11.8 21.5001 11.4 21.7001 11C21.9001 10.5 21.7001 9.9 21.2001 9.7ZM19.0001 18.5H5.00006V13.4C5.10006 13.4 5.10006 13.4 5.20006 13.4C5.30006 13.4 5.30006 13.4 5.40006 13.4C5.60006 13.5 5.80006 13.5 6.00006 13.5C7.20006 13.5 8.30006 13 9.00006 12.2C9.70006 13 10.8001 13.5 12.0001 13.5C13.2001 13.5 14.3001 13 15.0001 12.2C15.7001 13 16.8001 13.5 18.0001 13.5C18.2001 13.5 18.4001 13.5 18.6001 13.4C18.7001 13.4 18.7001 13.4 18.8001 13.4C18.9001 13.4 18.9001 13.4 19.0001 13.4V18.5Z" fill="#5E2F7D"/>
<path d="M19 8.5C20.6569 8.5 22 7.15685 22 5.5C22 3.84315 20.6569 2.5 19 2.5C17.3431 2.5 16 3.84315 16 5.5C16 7.15685 17.3431 8.5 19 8.5Z" fill="#5E2F7D"/>
</svg>
