<svg width="28" height="28" viewBox="0 0 28 28" fill="none" xmlns="http://www.w3.org/2000/svg">
<path d="M24.5 16.1341C24.5 21.9625 19.6022 26.6875 13.5625 26.6875C4.37502 26.7579 -0.743726 16.135 5.14021 9.3975C5.31419 9.68745 5.54903 9.93618 5.8285 10.1265C6.10798 10.3169 6.42544 10.4443 6.75896 10.5C7.22335 10.5242 7.68477 10.413 8.08721 10.18C8.48965 9.94705 8.81581 9.60225 9.02609 9.1875C9.52615 8.253 9.07859 7.42394 9.02609 6.5625C8.95346 5.36244 9.61846 3.61944 13.0012 1.3125C13.003 1.3125 24.5 10.2712 24.5 16.1341Z" fill="#FAA307"/>
<path d="M11.375 16.1875C12.0999 16.1875 12.6875 15.5999 12.6875 14.875C12.6875 14.1501 12.0999 13.5625 11.375 13.5625C10.6501 13.5625 10.0625 14.1501 10.0625 14.875C10.0625 15.5999 10.6501 16.1875 11.375 16.1875Z" fill="white"/>
<path d="M16.625 21.4375C17.3499 21.4375 17.9375 20.8499 17.9375 20.125C17.9375 19.4001 17.3499 18.8125 16.625 18.8125C15.9001 18.8125 15.3125 19.4001 15.3125 20.125C15.3125 20.8499 15.9001 21.4375 16.625 21.4375Z" fill="white"/>
<path d="M10.7189 20.7813C10.6329 20.6952 10.5648 20.5931 10.5184 20.4807C10.472 20.3682 10.4484 20.2478 10.4487 20.1262C10.4491 20.0045 10.4735 19.8842 10.5205 19.7721C10.5676 19.6599 10.6363 19.5582 10.7228 19.4727L16.0065 14.2564C16.1715 14.097 16.3925 14.0088 16.622 14.0108C16.8514 14.0128 17.0708 14.1048 17.2331 14.267C17.3953 14.4293 17.4873 14.6487 17.4893 14.8782C17.4913 15.1076 17.4031 15.3286 17.2437 15.4936L12.0274 20.7773C11.9419 20.8638 11.8402 20.9325 11.7281 20.9796C11.6159 21.0266 11.4956 21.051 11.374 21.0514C11.2524 21.0518 11.1319 21.0281 11.0194 20.9817C10.907 20.9354 10.8049 20.8672 10.7189 20.7813Z" fill="white"/>
</svg>
