<svg width="18" height="18" viewBox="0 0 18 18" fill="none" xmlns="http://www.w3.org/2000/svg">
<path d="M9.95344 15.8031C11.6016 14.6781 15.4125 11.5844 15.1763 7.51748C15.0786 5.98883 14.4217 4.5496 13.3309 3.47428C12.24 2.39897 10.7915 1.76282 9.26157 1.68717C8.42727 1.65187 7.59446 1.78581 6.81331 2.08092C6.03215 2.37602 5.31881 2.82619 4.71626 3.40431C4.1137 3.98243 3.6344 4.67653 3.30722 5.4448C2.98004 6.21308 2.81176 7.03963 2.8125 7.87467C2.8125 11.77 6.46875 14.7147 8.04094 15.8003C8.32302 15.9919 8.65617 16.0944 8.99719 16.0944C9.33821 16.0944 9.67137 15.9919 9.95344 15.8003V15.8031ZM6.32813 7.4528C6.32813 6.92435 6.48483 6.40777 6.77842 5.96838C7.07201 5.52899 7.4893 5.18653 7.97752 4.98431C8.46574 4.78208 9.00297 4.72917 9.52126 4.83226C10.0396 4.93536 10.5156 5.18983 10.8893 5.5635C11.263 5.93716 11.5174 6.41325 11.6205 6.93154C11.7236 7.44983 11.6707 7.98706 11.4685 8.47528C11.2663 8.9635 10.9238 9.38079 10.4844 9.67438C10.045 9.96797 9.52845 10.1247 9 10.1247C8.29161 10.1239 7.61244 9.84219 7.11152 9.34128C6.61061 8.84036 6.32887 8.16119 6.32813 7.4528Z" fill="#5E2F7D"/>
</svg>
