<svg width="18" height="18" viewBox="0 0 18 18" fill="none" xmlns="http://www.w3.org/2000/svg">
<g clip-path="url(#clip0_260_140)">
<path d="M7.43411 4.536C7.21923 2.06438 4.64073 0.851628 4.53161 0.802128C4.42959 0.754173 4.31527 0.738852 4.20423 0.758253C1.22748 1.25213 0.779732 2.98463 0.761732 3.05663C0.737242 3.15696 0.741137 3.26213 0.772982 3.36038C4.32348 14.3764 11.7024 16.4183 14.1279 17.0899C14.3146 17.1416 14.4687 17.1833 14.5857 17.2215C14.7192 17.2651 14.8643 17.2567 14.9919 17.1979C15.0661 17.1641 16.8189 16.3384 17.2475 13.6451C17.2665 13.5276 17.2476 13.407 17.1935 13.3009C17.1552 13.2266 16.2384 11.4818 13.6959 10.8653C13.6096 10.8432 13.5193 10.8424 13.4327 10.863C13.346 10.8836 13.2657 10.9249 13.1986 10.9834C12.3965 11.6685 11.2884 12.3986 10.8102 12.474C7.60511 10.9069 5.81523 7.89975 5.74773 7.32938C5.70836 7.00875 6.44298 5.88263 7.28786 4.96688C7.34096 4.90924 7.38141 4.84113 7.40659 4.76692C7.43178 4.69271 7.44115 4.61405 7.43411 4.536Z" fill="#5E2F7D"/>
</g>
<defs>
<clipPath id="clip0_260_140">
<rect width="18" height="18" fill="white"/>
</clipPath>
</defs>
</svg>
